<svg width="24" height="25" viewBox="0 0 24 25" fill="none" xmlns="http://www.w3.org/2000/svg">
<g clip-path="url(#clip0_256_2680)">
<path d="M5.82431 10.5116H7.99873V17.4302C8.00081 18.1111 8.27223 18.7636 8.7537 19.245C9.23517 19.7265 9.88759 19.9979 10.5685 20H19.2662C19.9471 19.9979 20.5995 19.7265 21.081 19.245C21.5624 18.7636 21.8339 18.1111 21.8359 17.4302V16.6395C21.8359 16.3774 21.7318 16.126 21.5465 15.9406C21.3611 15.7553 21.1097 15.6512 20.8476 15.6512H19.4638V6.75581C19.4638 5.75971 19.0681 4.8044 18.3638 4.10005C17.6594 3.3957 16.7041 3 15.708 3H7.01036C6.43366 3 5.88059 3.22909 5.47281 3.63687C5.06503 4.04466 4.83594 4.59773 4.83594 5.17442V9.52326C4.83594 9.78539 4.94007 10.0368 5.12542 10.2221C5.31078 10.4075 5.56218 10.5116 5.82431 10.5116ZM20.6499 17.4302C20.6478 17.7966 20.5014 18.1473 20.2423 18.4064C19.9833 18.6654 19.6325 18.8119 19.2662 18.814H12.7271C12.9952 18.4022 13.138 17.9215 13.1383 17.4302V16.8372H20.6499V17.4302ZM18.2778 6.75581V15.6512H12.9406C12.6785 15.6512 12.4271 15.7553 12.2417 15.9406C12.0563 16.126 11.9522 16.3774 11.9522 16.6395V17.4302C11.9518 17.7474 11.8423 18.0549 11.6422 18.301C11.4421 18.5471 11.1636 18.7171 10.8531 18.7823C10.8244 18.777 10.7949 18.777 10.7662 18.7823H10.5685C10.2075 18.7804 9.86143 18.6383 9.60325 18.3861C9.34508 18.1338 9.19502 17.7911 9.18477 17.4302V5.17442C9.18156 4.83032 9.0976 4.49178 8.93966 4.18605H15.708C16.3889 4.18813 17.0414 4.45954 17.5228 4.94102C18.0043 5.42249 18.2757 6.07491 18.2778 6.75581ZM6.02198 5.17442C6.02198 4.91229 6.12612 4.66089 6.31147 4.47553C6.49683 4.29018 6.74822 4.18605 7.01036 4.18605C7.27249 4.18605 7.52389 4.29018 7.70924 4.47553C7.8946 4.66089 7.99873 4.91229 7.99873 5.17442V9.32558H6.02198V5.17442Z" fill="#3F69FF"/>
<path d="M11.3586 7.74366H16.1028C16.2601 7.74366 16.411 7.68118 16.5222 7.56997C16.6334 7.45876 16.6959 7.30792 16.6959 7.15064C16.6959 6.99336 16.6334 6.84252 16.5222 6.73131C16.411 6.6201 16.2601 6.55762 16.1028 6.55762H11.3586C11.2014 6.55762 11.0505 6.6201 10.9393 6.73131C10.8281 6.84252 10.7656 6.99336 10.7656 7.15064C10.7656 7.30792 10.8281 7.45876 10.9393 7.56997C11.0505 7.68118 11.2014 7.74366 11.3586 7.74366Z" fill="#3F69FF"/>
<path d="M11.3586 13.2798H13.7307C13.888 13.2798 14.0389 13.2173 14.1501 13.1061C14.2613 12.9949 14.3238 12.8441 14.3238 12.6868C14.3238 12.5295 14.2613 12.3787 14.1501 12.2674C14.0389 12.1562 13.888 12.0938 13.7307 12.0938H11.3586C11.2014 12.0938 11.0505 12.1562 10.9393 12.2674C10.8281 12.3787 10.7656 12.5295 10.7656 12.6868C10.7656 12.8441 10.8281 12.9949 10.9393 13.1061C11.0505 13.2173 11.2014 13.2798 11.3586 13.2798Z" fill="#3F69FF"/>
<path d="M11.3586 10.5122H16.1028C16.2601 10.5122 16.411 10.4497 16.5222 10.3385C16.6334 10.2273 16.6959 10.0765 16.6959 9.9192C16.6959 9.76192 16.6334 9.61108 16.5222 9.49986C16.411 9.38865 16.2601 9.32617 16.1028 9.32617H11.3586C11.2014 9.32617 11.0505 9.38865 10.9393 9.49986C10.8281 9.61108 10.7656 9.76192 10.7656 9.9192C10.7656 10.0765 10.8281 10.2273 10.9393 10.3385C11.0505 10.4497 11.2014 10.5122 11.3586 10.5122Z" fill="#3F69FF"/>
</g>
<defs>
<clipPath id="clip0_256_2680">
<rect y="0.5" width="24" height="24" rx="2" fill="white"/>
</clipPath>
</defs>
</svg>
