<svg width="24" height="25" viewBox="0 0 24 25" fill="none" xmlns="http://www.w3.org/2000/svg">
<path d="M18.5803 8.52184L14.1816 4.24231C13.911 3.97895 13.5509 3.83398 13.1684 3.83398H6.4329C5.64257 3.83398 5 4.45915 5 5.22808V20.4387C5 21.2082 5.64319 21.834 6.43415 21.834H17.5671C18.3574 21.834 19 21.2088 19 20.4399V9.50761C19 9.13553 18.851 8.78519 18.5803 8.52184ZM17.0928 8.61184H14.4045C14.2307 8.61184 14.0891 8.47412 14.0891 8.30499V5.68955L17.0928 8.61184ZM17.5671 20.7467H6.43415C6.25969 20.7467 6.11752 20.6084 6.11752 20.4387V5.22808C6.11752 5.05895 6.25907 4.92123 6.4329 4.92123H12.9716V8.30499C12.9716 9.07392 13.6142 9.69909 14.4045 9.69909H17.8825V20.4399C17.8825 20.609 17.7409 20.7467 17.5671 20.7467Z" fill="#3F69FF"/>
<path d="M15.9589 11.3838H8.04313C7.73457 11.3838 7.48438 11.6272 7.48438 11.9274C7.48438 12.2276 7.73457 12.471 8.04313 12.471H15.9589C16.2674 12.471 16.5176 12.2276 16.5176 11.9274C16.5176 11.6272 16.2674 11.3838 15.9589 11.3838Z" fill="#3F69FF"/>
<path d="M8.04313 9.35092H11.2169C11.5254 9.35092 11.7756 9.1075 11.7756 8.8073C11.7756 8.5071 11.5254 8.26367 11.2169 8.26367H8.04313C7.73457 8.26367 7.48438 8.5071 7.48438 8.8073C7.48438 9.1075 7.73457 9.35092 8.04313 9.35092Z" fill="#3F69FF"/>
<path d="M15.9589 14.5049H8.04313C7.73457 14.5049 7.48438 14.7483 7.48438 15.0485C7.48438 15.3487 7.73457 15.5921 8.04313 15.5921H15.9589C16.2674 15.5921 16.5176 15.3487 16.5176 15.0485C16.5176 14.7483 16.2674 14.5049 15.9589 14.5049Z" fill="#3F69FF"/>
<path d="M15.9589 17.626H8.04313C7.73457 17.626 7.48438 17.8694 7.48438 18.1696C7.48438 18.4698 7.73457 18.7132 8.04313 18.7132H15.9589C16.2674 18.7132 16.5176 18.4698 16.5176 18.1696C16.5176 17.8694 16.2674 17.626 15.9589 17.626Z" fill="#3F69FF"/>
</svg>
