<svg width="24" height="25" viewBox="0 0 24 25" fill="none" xmlns="http://www.w3.org/2000/svg">
<path d="M16.7857 4.89785L16.7857 4.89789L17.5503 6.94986L19.6023 7.71448C19.8445 7.80475 19.9887 8.0543 19.9456 8.30933L19.5816 10.4685L20.9766 12.1566C20.9766 12.1567 20.9766 12.1567 20.9766 12.1567C21.1413 12.3559 21.1413 12.6442 20.9766 12.8434C20.9766 12.8434 20.9766 12.8434 20.9766 12.8434L19.5816 14.5315L19.9456 16.6907C19.9887 16.9458 19.8445 17.1953 19.6023 17.2856L17.5503 18.0502L16.7857 20.1021L16.7857 4.89785ZM16.7857 4.89785C16.6956 4.65638 16.447 4.51038 16.1907 4.55457C16.1906 4.55459 16.1905 4.5546 16.1905 4.55461L14.0316 4.91857L12.3435 3.52352C12.3435 3.52352 12.3435 3.52351 12.3435 3.52351C12.1443 3.35883 11.856 3.35883 11.6568 3.52351C11.6568 3.52351 11.6568 3.52352 11.6568 3.52352L9.96865 4.91857L7.80964 4.55458L7.79278 4.65315L7.8094 4.55454L7.80958 4.55457C7.55404 4.51088 7.3048 4.65585 7.21461 4.89789L6.44999 6.94986L4.39803 7.71448C4.1558 7.80474 4.01158 8.05427 4.05468 8.30927C4.05468 8.30929 4.05469 8.30931 4.05469 8.30933L4.41871 10.4685L3.02366 12.1566C2.85897 12.3558 2.85897 12.6442 3.02366 12.8434L4.41871 14.5315L4.05469 16.6907C4.05469 16.6907 4.05468 16.6908 4.05468 16.6908C4.01158 16.9458 4.1558 17.1953 4.39803 17.2856L4.43295 17.1919L4.39803 17.2856L6.44999 18.0502L7.21459 20.1021C7.30456 20.344 7.55268 20.4889 7.8094 20.4455C7.80941 20.4455 7.80943 20.4455 7.80944 20.4455L9.96865 20.0815L11.6568 21.4765L11.6569 21.4766M16.7857 4.89785L11.6569 21.4766M11.6569 21.4766C11.7565 21.5587 11.8784 21.6 12.0001 21.6C12.1219 21.6 12.2438 21.5587 12.3434 21.4766L12.3435 21.4765M11.6569 21.4766L12.3435 21.4765M12.3435 21.4765L14.0316 20.0815M12.3435 21.4765L14.0316 20.0815M18.4774 14.4677L18.4774 14.4676C18.4515 14.3134 18.4939 14.1555 18.5935 14.0348L18.5936 14.0348L19.8617 12.5L18.5938 10.9655L18.5938 10.9655L18.6709 10.9018L18.4774 14.4677ZM18.4774 14.4677L18.8083 16.4307L16.9429 17.1258L16.9428 17.1258M18.4774 14.4677L16.9428 17.1258M16.9428 17.1258C16.7962 17.1805 16.6806 17.2961 16.6259 17.4427L16.6259 17.4428M16.9428 17.1258L16.6259 17.4428M16.6259 17.4428L15.9308 19.3084M16.6259 17.4428L15.9308 19.3084M7.37435 17.4427L7.37437 17.4428L8.06925 19.3084L10.032 18.9776C10.0321 18.9776 10.0321 18.9776 10.0322 18.9776L10.0323 18.9775L10.0489 19.0762C10.0733 19.072 10.0979 19.07 10.122 19.07L7.37435 17.4427ZM7.37435 17.4427C7.31965 17.2961 7.20405 17.1805 7.05748 17.1258L7.05743 17.1258M7.37435 17.4427L7.05743 17.1258M7.05743 17.1258L5.19175 16.4307M7.05743 17.1258L5.19175 16.4307M14.0316 20.0815L16.1907 20.4455L16.1909 20.4455L16.2075 20.3469L14.0316 20.0815ZM15.9308 19.3084L13.9681 18.9776C13.968 18.9776 13.968 18.9776 13.9679 18.9776C13.8124 18.9509 13.655 18.9942 13.5349 19.0937L15.9308 19.3084ZM5.19175 16.4307L5.52263 14.4677L5.52265 14.4677L5.19175 16.4307ZM15.1846 10.3315C15.395 10.5419 15.395 10.8832 15.1846 11.0937L11.2648 15.0134L11.2647 15.0135L11.194 14.9428C11.1084 15.0286 10.996 15.0714 10.8836 15.0714L15.1846 10.3315ZM15.1846 10.3315C14.9743 10.1209 14.6326 10.121 14.4223 10.3315L10.8836 13.87L9.50866 12.4953C9.29838 12.2847 8.95666 12.2847 8.74637 12.4953C8.53593 12.7058 8.53594 13.0469 8.74642 13.2574L10.5024 15.0134L15.1846 10.3315ZM18.8085 8.56956L18.4777 10.5325L5.40646 14.0347L4.13857 12.5L5.40674 10.9652L5.40675 10.9652C5.50643 10.8445 5.54875 10.6866 5.52288 10.5325L5.52287 10.5324L5.19197 8.56934L7.05765 7.87424L7.0577 7.87422C7.20427 7.81952 7.31987 7.70392 7.37457 7.55734L7.37459 7.5573L8.06968 5.69161L10.0327 6.02251L10.0328 6.02253C10.1873 6.0484 10.3451 6.00582 10.4655 5.90641L10.4656 5.90638L12.0001 4.63843L13.5348 5.90646C13.6555 6.00671 13.8133 6.0483 13.9675 6.02278L13.9678 6.02273L15.9308 5.69183L16.6259 7.55752L16.6259 7.55756C16.6806 7.70414 16.7962 7.81974 16.9428 7.87444L16.9429 7.87446L18.8085 8.56956ZM12.0001 20.3616L10.4655 19.0935L13.5348 19.0938L12.0001 20.3616Z" fill="#3F69FF" stroke="#3F69FF" stroke-width="0.2"/>
</svg>
