<svg width="24" height="23" viewBox="0 0 24 23" fill="none" xmlns="http://www.w3.org/2000/svg">
<path d="M18.7856 4.57141H17.4999V3.92856C17.4999 3.41707 17.2967 2.92654 16.9351 2.56486C16.5734 2.20319 16.0828 2 15.5714 2H5.92856C5.41707 2 4.92654 2.20319 4.56486 2.56486C4.20319 2.92654 4 3.41707 4 3.92856V18.0713C4 18.5828 4.20319 19.0734 4.56486 19.435C4.92654 19.7967 5.41707 19.9999 5.92856 19.9999H15.5714C16.0828 19.9999 16.5734 19.7967 16.9351 19.435C17.2967 19.0734 17.4999 18.5828 17.4999 18.0713H18.7856C19.2971 18.0713 19.7876 17.8681 20.1493 17.5065C20.511 17.1448 20.7142 16.6543 20.7142 16.1428V6.49997C20.7142 5.98849 20.511 5.49795 20.1493 5.13627C19.7876 4.7746 19.2971 4.57141 18.7856 4.57141ZM5.28571 5.85712H16.2142V8.42853H5.28571V5.85712ZM5.92856 3.28571H15.5714C15.7419 3.28571 15.9054 3.35344 16.0259 3.47399C16.1465 3.59455 16.2142 3.75806 16.2142 3.92856V4.57141H5.28571V3.92856C5.28571 3.75806 5.35344 3.59455 5.47399 3.47399C5.59455 3.35344 5.75806 3.28571 5.92856 3.28571ZM16.2142 18.0713C16.2142 18.2418 16.1465 18.4053 16.0259 18.5259C15.9054 18.6465 15.7419 18.7142 15.5714 18.7142H5.92856C5.75806 18.7142 5.59455 18.6465 5.47399 18.5259C5.35344 18.4053 5.28571 18.2418 5.28571 18.0713V9.71424H16.2142V18.0713ZM19.4285 16.1428C19.4285 16.3133 19.3607 16.4768 19.2402 16.5973C19.1196 16.7179 18.9561 16.7856 18.7856 16.7856H17.4999V5.85712H18.7856C18.9561 5.85712 19.1196 5.92485 19.2402 6.04541C19.3607 6.16596 19.4285 6.32948 19.4285 6.49997V16.1428Z" fill="#3F69FF"/>
<path d="M8.17745 11H7.21317C7.04267 11 6.87916 11.0677 6.7586 11.1883C6.63804 11.3088 6.57031 11.4724 6.57031 11.6429C6.57031 11.8133 6.63804 11.9769 6.7586 12.0974C6.87916 12.218 7.04267 12.2857 7.21317 12.2857H8.17745C8.34794 12.2857 8.51145 12.218 8.63201 12.0974C8.75257 11.9769 8.8203 11.8133 8.8203 11.6429C8.8203 11.4724 8.75257 11.3088 8.63201 11.1883C8.51145 11.0677 8.34794 11 8.17745 11Z" fill="#3F69FF"/>
<path d="M11.2321 11H10.2679C10.0974 11 9.93385 11.0677 9.81329 11.1883C9.69273 11.3088 9.625 11.4724 9.625 11.6429C9.625 11.8133 9.69273 11.9769 9.81329 12.0974C9.93385 12.218 10.0974 12.2857 10.2679 12.2857H11.2321C11.4026 12.2857 11.5661 12.218 11.6867 12.0974C11.8073 11.9769 11.875 11.8133 11.875 11.6429C11.875 11.4724 11.8073 11.3088 11.6867 11.1883C11.5661 11.0677 11.4026 11 11.2321 11Z" fill="#3F69FF"/>
<path d="M14.2849 11H13.3206C13.1501 11 12.9866 11.0677 12.866 11.1883C12.7455 11.3088 12.6777 11.4724 12.6777 11.6429C12.6777 11.8133 12.7455 11.9769 12.866 12.0974C12.9866 12.218 13.1501 12.2857 13.3206 12.2857H14.2849C14.4554 12.2857 14.6189 12.218 14.7394 12.0974C14.86 11.9769 14.9277 11.8133 14.9277 11.6429C14.9277 11.4724 14.86 11.3088 14.7394 11.1883C14.6189 11.0677 14.4554 11 14.2849 11Z" fill="#3F69FF"/>
<path d="M8.17745 13.5713H7.21317C7.04267 13.5713 6.87916 13.639 6.7586 13.7596C6.63804 13.8801 6.57031 14.0436 6.57031 14.2141C6.57031 14.3846 6.63804 14.5482 6.7586 14.6687C6.87916 14.7893 7.04267 14.857 7.21317 14.857H8.17745C8.34794 14.857 8.51145 14.7893 8.63201 14.6687C8.75257 14.5482 8.8203 14.3846 8.8203 14.2141C8.8203 14.0436 8.75257 13.8801 8.63201 13.7596C8.51145 13.639 8.34794 13.5713 8.17745 13.5713Z" fill="#3F69FF"/>
<path d="M11.2321 13.5713H10.2679C10.0974 13.5713 9.93385 13.639 9.81329 13.7596C9.69273 13.8801 9.625 14.0436 9.625 14.2141C9.625 14.3846 9.69273 14.5482 9.81329 14.6687C9.93385 14.7893 10.0974 14.857 10.2679 14.857H11.2321C11.4026 14.857 11.5661 14.7893 11.6867 14.6687C11.8073 14.5482 11.875 14.3846 11.875 14.2141C11.875 14.0436 11.8073 13.8801 11.6867 13.7596C11.5661 13.639 11.4026 13.5713 11.2321 13.5713Z" fill="#3F69FF"/>
<path d="M14.2849 13.5713H13.3206C13.1501 13.5713 12.9866 13.639 12.866 13.7596C12.7455 13.8801 12.6777 14.0436 12.6777 14.2141C12.6777 14.3846 12.7455 14.5482 12.866 14.6687C12.9866 14.7893 13.1501 14.857 13.3206 14.857H14.2849C14.4554 14.857 14.6189 14.7893 14.7394 14.6687C14.86 14.5482 14.9277 14.3846 14.9277 14.2141C14.9277 14.0436 14.86 13.8801 14.7394 13.7596C14.6189 13.639 14.4554 13.5713 14.2849 13.5713Z" fill="#3F69FF"/>
<path d="M8.17745 16.1426H7.21317C7.04267 16.1426 6.87916 16.2103 6.7586 16.3309C6.63804 16.4514 6.57031 16.6149 6.57031 16.7854C6.57031 16.9559 6.63804 17.1194 6.7586 17.24C6.87916 17.3606 7.04267 17.4283 7.21317 17.4283H8.17745C8.34794 17.4283 8.51145 17.3606 8.63201 17.24C8.75257 17.1194 8.8203 16.9559 8.8203 16.7854C8.8203 16.6149 8.75257 16.4514 8.63201 16.3309C8.51145 16.2103 8.34794 16.1426 8.17745 16.1426Z" fill="#3F69FF"/>
<path d="M11.2321 16.1426H10.2679C10.0974 16.1426 9.93385 16.2103 9.81329 16.3309C9.69273 16.4514 9.625 16.6149 9.625 16.7854C9.625 16.9559 9.69273 17.1194 9.81329 17.24C9.93385 17.3606 10.0974 17.4283 10.2679 17.4283H11.2321C11.4026 17.4283 11.5661 17.3606 11.6867 17.24C11.8073 17.1194 11.875 16.9559 11.875 16.7854C11.875 16.6149 11.8073 16.4514 11.6867 16.3309C11.5661 16.2103 11.4026 16.1426 11.2321 16.1426Z" fill="#3F69FF"/>
<path d="M14.2849 16.1426H13.3206C13.1501 16.1426 12.9866 16.2103 12.866 16.3309C12.7455 16.4514 12.6777 16.6149 12.6777 16.7854C12.6777 16.9559 12.7455 17.1194 12.866 17.24C12.9866 17.3606 13.1501 17.4283 13.3206 17.4283H14.2849C14.4554 17.4283 14.6189 17.3606 14.7394 17.24C14.86 17.1194 14.9277 16.9559 14.9277 16.7854C14.9277 16.6149 14.86 16.4514 14.7394 16.3309C14.6189 16.2103 14.4554 16.1426 14.2849 16.1426Z" fill="#3F69FF"/>
</svg>
