<svg width="24" height="25" viewBox="0 0 24 25" fill="none" xmlns="http://www.w3.org/2000/svg">
<path d="M19.1397 6.09146H16.5699V4.11585C16.5679 3.75424 16.4214 3.40802 16.1624 3.15231C15.9033 2.89661 15.5526 2.75205 15.1862 2.75H8.86065C8.4943 2.75205 8.14355 2.89661 7.8845 3.15231C7.62545 3.40802 7.479 3.75424 7.47693 4.11585V6.09146H4.90716C4.54081 6.09351 4.19006 6.23807 3.93101 6.49378C3.67196 6.74948 3.52551 7.0957 3.52344 7.45732V12.9207C3.5232 13.1781 3.59751 13.4302 3.7376 13.6473C3.87769 13.8644 4.07772 14.0375 4.31414 14.1461V18.3841C4.31621 18.7458 4.46266 19.092 4.72171 19.3477C4.98076 19.6034 5.33151 19.748 5.69786 19.75H18.349C18.7154 19.748 19.0661 19.6034 19.3252 19.3477C19.5842 19.092 19.7307 18.7458 19.7327 18.3841V14.1461C19.9692 14.0375 20.1692 13.8644 20.3093 13.6473C20.4494 13.4302 20.5237 13.1781 20.5234 12.9207V7.45732C20.5214 7.0957 20.3749 6.74948 20.1159 6.49378C19.8568 6.23807 19.5061 6.09351 19.1397 6.09146ZM8.66297 4.11585C8.66297 4.0641 8.6838 4.01447 8.72087 3.97788C8.75794 3.94129 8.80822 3.92073 8.86065 3.92073H15.1862C15.2387 3.92073 15.2889 3.94129 15.326 3.97788C15.3631 4.01447 15.3839 4.0641 15.3839 4.11585V6.09146H8.66297V4.11585ZM4.70948 7.45732C4.70948 7.40557 4.73031 7.35594 4.76738 7.31934C4.80445 7.28275 4.85473 7.2622 4.90716 7.2622H19.1397C19.1921 7.2622 19.2424 7.28275 19.2795 7.31934C19.3166 7.35594 19.3374 7.40557 19.3374 7.45732V12.9207C19.3374 12.9725 19.3166 13.0221 19.2795 13.0587C19.2424 13.0953 19.1921 13.1159 19.1397 13.1159H16.5699V11.9207C16.5699 11.7655 16.5075 11.6166 16.3963 11.5068C16.285 11.397 16.1342 11.3354 15.9769 11.3354C15.8196 11.3354 15.6688 11.397 15.5576 11.5068C15.4464 11.6166 15.3839 11.7655 15.3839 11.9207V13.1159H8.66297V11.9207C8.66297 11.7655 8.60049 11.6166 8.48928 11.5068C8.37807 11.397 8.22723 11.3354 8.06995 11.3354C7.91267 11.3354 7.76183 11.397 7.65062 11.5068C7.53941 11.6166 7.47693 11.7655 7.47693 11.9207V13.1159H4.90716C4.85473 13.1159 4.80445 13.0953 4.76738 13.0587C4.73031 13.0221 4.70948 12.9725 4.70948 12.9207V7.45732ZM18.5467 18.3841C18.5467 18.4359 18.5259 18.4855 18.4888 18.5221C18.4517 18.5587 18.4014 18.5793 18.349 18.5793H5.69786C5.64543 18.5793 5.59515 18.5587 5.55808 18.5221C5.52101 18.4855 5.50018 18.4359 5.50018 18.3841V14.2866H7.47693V14.4817C7.47693 14.637 7.53941 14.7858 7.65062 14.8956C7.76183 15.0054 7.91267 15.0671 8.06995 15.0671C8.22723 15.0671 8.37807 15.0054 8.48928 14.8956C8.60049 14.7858 8.66297 14.637 8.66297 14.4817V14.2866H15.3839V14.4817C15.3839 14.637 15.4464 14.7858 15.5576 14.8956C15.6688 15.0054 15.8196 15.0671 15.9769 15.0671C16.1342 15.0671 16.285 15.0054 16.3963 14.8956C16.5075 14.7858 16.5699 14.637 16.5699 14.4817V14.2866H18.5467V18.3841Z" fill="#3F69FF"/>
</svg>
