<svg width="393" height="154" viewBox="0 0 393 154" fill="none" xmlns="http://www.w3.org/2000/svg">
<path d="M27.0281 35.7973H37.1877L64.0614 100.432H53.3775L46.4296 83.3747H17.7206L10.7727 100.432H0.154297L27.0281 35.7973ZM21.4567 74.0945H42.759L32.1406 47.2995L21.4567 74.0945ZM138.521 100.432V53.8349L102.406 100.432H93.6226V35.7973H103.782V82.4597L139.898 35.7973H148.681V100.432H138.521ZM227.402 35.7973V45.0121H207.934V100.432H197.775V45.0121H178.308V35.7973H227.402ZM303.762 91.1518V100.367H257.028V35.7319H302.845V44.9468H267.188V62.0041H295.438V71.2189H267.188V91.021H303.762V91.1518ZM346.367 67.167L375.535 35.7319H388.513L363.54 62.5269L390.414 100.367H377.895L356.592 69.9118L346.433 81.022V100.432H336.273V35.7973H346.433V67.167H346.367Z" fill="#262626"/>
<path d="M129.803 22.922C129.839 24.1311 129.574 25.3302 129.032 26.4121C128.489 27.4941 127.687 28.4252 126.695 29.1222C125.704 29.8191 124.554 30.2603 123.35 30.4061C122.146 30.5519 120.924 30.3978 119.794 29.9577C118.664 29.5176 117.661 28.8052 116.875 27.8841C116.089 26.963 115.543 25.8619 115.288 24.6794C115.033 23.4969 115.076 22.2698 115.413 21.1077C115.749 19.9457 116.37 18.885 117.218 18.0205C118.726 16.5174 120.758 15.7985 122.724 15.8638H122.79C123.804 15.8908 124.813 15.7115 125.756 15.3368C126.699 14.9621 127.555 14.3998 128.273 13.6843C128.99 12.9689 129.554 12.1151 129.93 11.1752C130.306 10.2353 130.486 9.22895 130.458 8.21746V8.15211C130.422 6.94307 130.687 5.74395 131.23 4.66198C131.772 3.58001 132.575 2.64892 133.566 1.95195C134.558 1.25499 135.707 0.813875 136.911 0.668064C138.116 0.522253 139.337 0.676287 140.467 1.11639C141.597 1.5565 142.6 2.26895 143.387 3.19006C144.173 4.11116 144.718 5.21219 144.973 6.39471C145.228 7.57723 145.186 8.80436 144.849 9.96639C144.512 11.1284 143.892 12.1891 143.043 13.0536C142.321 13.7678 141.46 14.3275 140.514 14.6983C139.567 15.0692 138.554 15.2434 137.537 15.2103H137.472C136.452 15.1829 135.437 15.3641 134.49 15.7428C133.542 16.1215 132.683 16.6896 131.964 17.4122C131.246 18.1348 130.683 18.9964 130.312 19.944C129.94 20.8916 129.767 21.9051 129.803 22.922C129.803 22.8567 129.803 22.8567 129.803 22.922Z" fill="url(#paint0_linear_256_2999)"/>
<path d="M115.056 22.922C115.02 24.1311 115.285 25.3302 115.827 26.4121C116.37 27.4941 117.173 28.4252 118.164 29.1222C119.156 29.8191 120.305 30.2603 121.509 30.4061C122.713 30.5519 123.935 30.3978 125.065 29.9577C126.195 29.5176 127.198 28.8052 127.984 27.8841C128.771 26.963 129.316 25.8619 129.571 24.6794C129.826 23.4969 129.783 22.2698 129.447 21.1077C129.11 19.9457 128.489 18.885 127.641 18.0205C126.919 17.3063 126.058 16.7466 125.111 16.3758C124.164 16.0049 123.152 15.8307 122.135 15.8638H122.07C121.055 15.8908 120.046 15.7115 119.103 15.3368C118.16 14.9621 117.304 14.3998 116.587 13.6843C115.869 12.9689 115.305 12.1151 114.929 11.1752C114.553 10.2353 114.374 9.22895 114.401 8.21746V8.15211C114.437 6.94307 114.172 5.74395 113.629 4.66198C113.087 3.58001 112.284 2.64892 111.293 1.95195C110.301 1.25499 109.152 0.813875 107.948 0.668064C106.743 0.522253 105.522 0.676287 104.392 1.11639C103.262 1.5565 102.259 2.26895 101.472 3.19006C100.686 4.11116 100.141 5.21219 99.8859 6.39471C99.6307 7.57723 99.6735 8.80436 100.01 9.96639C100.347 11.1284 100.967 12.1891 101.816 13.0536C103.323 14.5568 105.355 15.2756 107.322 15.2103H107.387C108.407 15.1829 109.422 15.3641 110.37 15.7428C111.317 16.1215 112.176 16.6896 112.895 17.4122C113.613 18.1348 114.176 18.9964 114.547 19.944C114.919 20.8916 115.092 21.9051 115.056 22.922C115.122 22.8567 115.122 22.8567 115.056 22.922Z" fill="url(#paint1_linear_256_2999)"/>
<path d="M17.0908 140.445C17.0908 142.313 16.7535 143.928 16.0788 145.289C15.4042 146.649 14.4787 147.699 13.3025 148.437C12.1262 149.175 10.7827 149.544 9.27196 149.544C7.76124 149.544 6.41774 149.175 5.24145 148.437C4.06517 147.699 3.13971 146.649 2.46508 145.289C1.79044 143.928 1.45312 142.313 1.45312 140.445C1.45312 138.577 1.79044 136.962 2.46508 135.601C3.13971 134.241 4.06517 133.191 5.24145 132.453C6.41774 131.715 7.76124 131.346 9.27196 131.346C10.7827 131.346 12.1262 131.715 13.3025 132.453C14.4787 133.191 15.4042 134.241 16.0788 135.601C16.7535 136.962 17.0908 138.577 17.0908 140.445ZM15.015 140.445C15.015 138.911 14.7584 137.617 14.2452 136.562C13.7378 135.506 13.0488 134.708 12.1781 134.166C11.3132 133.624 10.3445 133.353 9.27196 133.353C8.19946 133.353 7.22788 133.624 6.35719 134.166C5.49228 134.708 4.80323 135.506 4.29005 136.562C3.78263 137.617 3.52892 138.911 3.52892 140.445C3.52892 141.979 3.78263 143.273 4.29005 144.328C4.80323 145.384 5.49228 146.182 6.35719 146.724C7.22788 147.266 8.19946 147.537 9.27196 147.537C10.3445 147.537 11.3132 147.266 12.1781 146.724C13.0488 146.182 13.7378 145.384 14.2452 144.328C14.7584 143.273 15.015 141.979 15.015 140.445Z" fill="#4B4B4B"/>
<path d="M39.8225 137.124H37.6775C37.5506 136.507 37.3287 135.965 37.0115 135.498C36.7001 135.031 36.3196 134.639 35.8698 134.321C35.4258 133.998 34.9328 133.756 34.3908 133.595C33.8488 133.433 33.2837 133.353 32.6956 133.353C31.6231 133.353 30.6515 133.624 29.7808 134.166C28.9159 134.708 28.2269 135.506 27.7137 136.562C27.2063 137.617 26.9526 138.911 26.9526 140.445C26.9526 141.979 27.2063 143.273 27.7137 144.328C28.2269 145.384 28.9159 146.182 29.7808 146.724C30.6515 147.266 31.6231 147.537 32.6956 147.537C33.2837 147.537 33.8488 147.457 34.3908 147.295C34.9328 147.134 35.4258 146.894 35.8698 146.577C36.3196 146.254 36.7001 145.859 37.0115 145.392C37.3287 144.919 37.5506 144.377 37.6775 143.766H39.8225C39.661 144.672 39.367 145.482 38.9403 146.197C38.5136 146.912 37.9831 147.52 37.3488 148.022C36.7146 148.518 36.0025 148.895 35.2125 149.155C34.4283 149.414 33.5893 149.544 32.6956 149.544C31.1849 149.544 29.8414 149.175 28.6651 148.437C27.4888 147.699 26.5633 146.649 25.8887 145.289C25.2141 143.928 24.8768 142.313 24.8768 140.445C24.8768 138.577 25.2141 136.962 25.8887 135.601C26.5633 134.241 27.4888 133.191 28.6651 132.453C29.8414 131.715 31.1849 131.346 32.6956 131.346C33.5893 131.346 34.4283 131.476 35.2125 131.735C36.0025 131.995 36.7146 132.375 37.3488 132.877C37.9831 133.373 38.5136 133.978 38.9403 134.693C39.367 135.403 39.661 136.213 39.8225 137.124Z" fill="#4B4B4B"/>
<path d="M48.1598 149.302V131.588H50.3048V139.476H59.7497V131.588H61.8947V149.302H59.7497V141.379H50.3048V149.302H48.1598Z" fill="#4B4B4B"/>
<path d="M86.0059 140.445C86.0059 142.313 85.6686 143.928 84.994 145.289C84.3194 146.649 83.3939 147.699 82.2176 148.437C81.0413 149.175 79.6978 149.544 78.1871 149.544C76.6764 149.544 75.3329 149.175 74.1566 148.437C72.9803 147.699 72.0548 146.649 71.3802 145.289C70.7056 143.928 70.3683 142.313 70.3683 140.445C70.3683 138.577 70.7056 136.962 71.3802 135.601C72.0548 134.241 72.9803 133.191 74.1566 132.453C75.3329 131.715 76.6764 131.346 78.1871 131.346C79.6978 131.346 81.0413 131.715 82.2176 132.453C83.3939 133.191 84.3194 134.241 84.994 135.601C85.6686 136.962 86.0059 138.577 86.0059 140.445ZM83.9301 140.445C83.9301 138.911 83.6735 137.617 83.1604 136.562C82.6529 135.506 81.9639 134.708 81.0932 134.166C80.2283 133.624 79.2596 133.353 78.1871 133.353C77.1146 133.353 76.143 133.624 75.2723 134.166C74.4074 134.708 73.7184 135.506 73.2052 136.562C72.6978 137.617 72.4441 138.911 72.4441 140.445C72.4441 141.979 72.6978 143.273 73.2052 144.328C73.7184 145.384 74.4074 146.182 75.2723 146.724C76.143 147.266 77.1146 147.537 78.1871 147.537C79.2596 147.537 80.2283 147.266 81.0932 146.724C81.9639 146.182 82.6529 145.384 83.1604 144.328C83.6735 143.273 83.9301 141.979 83.9301 140.445Z" fill="#4B4B4B"/>
<path d="M94.4838 149.302V131.588H100.677C101.911 131.588 102.928 131.802 103.73 132.228C104.531 132.649 105.128 133.217 105.52 133.932C105.912 134.641 106.108 135.428 106.108 136.293C106.108 137.055 105.973 137.683 105.702 138.179C105.437 138.675 105.085 139.067 104.647 139.355C104.214 139.643 103.744 139.857 103.237 139.995V140.168C103.779 140.203 104.324 140.393 104.871 140.739C105.419 141.085 105.878 141.581 106.247 142.227C106.616 142.873 106.8 143.662 106.8 144.597C106.8 145.485 106.598 146.283 106.195 146.992C105.791 147.702 105.154 148.264 104.283 148.679C103.413 149.094 102.28 149.302 100.884 149.302H94.4838ZM96.6288 147.399H100.884C102.285 147.399 103.28 147.128 103.868 146.586C104.462 146.038 104.759 145.375 104.759 144.597C104.759 143.997 104.606 143.443 104.301 142.936C103.995 142.423 103.56 142.013 102.995 141.708C102.43 141.396 101.761 141.241 100.988 141.241H96.6288V147.399ZM96.6288 139.372H100.607C101.253 139.372 101.836 139.246 102.355 138.992C102.879 138.738 103.294 138.381 103.6 137.919C103.911 137.458 104.067 136.916 104.067 136.293C104.067 135.515 103.796 134.855 103.254 134.313C102.712 133.765 101.853 133.491 100.677 133.491H96.6288V139.372Z" fill="#4B4B4B"/>
<path d="M115.922 149.302H113.674L120.178 131.588H122.392L128.896 149.302H126.647L121.354 134.391H121.216L115.922 149.302ZM116.753 142.382H125.817V144.285H116.753V142.382Z" fill="#4B4B4B"/>
<path d="M136.527 149.302V131.588H138.671V139.476H148.116V131.588H150.261V149.302H148.116V141.379H138.671V149.302H136.527Z" fill="#4B4B4B"/>
<path d="M160.153 149.302H157.905L164.409 131.588H166.623L173.127 149.302H170.878L165.585 134.391H165.447L160.153 149.302ZM160.984 142.382H170.048V144.285H160.984V142.382Z" fill="#4B4B4B"/>
<path d="M192.479 149.302V131.588H198.672C199.905 131.588 200.923 131.802 201.725 132.228C202.526 132.649 203.123 133.217 203.515 133.932C203.907 134.641 204.103 135.428 204.103 136.293C204.103 137.055 203.968 137.683 203.697 138.179C203.431 138.675 203.08 139.067 202.641 139.355C202.209 139.643 201.739 139.857 201.232 139.995V140.168C201.774 140.203 202.319 140.393 202.866 140.739C203.414 141.085 203.873 141.581 204.242 142.227C204.611 142.873 204.795 143.662 204.795 144.597C204.795 145.485 204.593 146.283 204.19 146.992C203.786 147.702 203.149 148.264 202.278 148.679C201.408 149.094 200.274 149.302 198.879 149.302H192.479ZM194.624 147.399H198.879C200.28 147.399 201.275 147.128 201.863 146.586C202.457 146.038 202.754 145.375 202.754 144.597C202.754 143.997 202.601 143.443 202.296 142.936C201.99 142.423 201.555 142.013 200.989 141.708C200.424 141.396 199.756 141.241 198.983 141.241H194.624V147.399ZM194.624 139.372H198.602C199.248 139.372 199.83 139.246 200.349 138.992C200.874 138.738 201.289 138.381 201.595 137.919C201.906 137.458 202.062 136.916 202.062 136.293C202.062 135.515 201.791 134.855 201.249 134.313C200.707 133.765 199.848 133.491 198.672 133.491H194.624V139.372Z" fill="#4B4B4B"/>
<path d="M224.601 149.302V147.745L230.448 141.344C231.134 140.595 231.699 139.943 232.143 139.39C232.587 138.83 232.916 138.306 233.129 137.816C233.348 137.32 233.458 136.801 233.458 136.259C233.458 135.636 233.308 135.097 233.008 134.641C232.714 134.186 232.31 133.834 231.797 133.586C231.284 133.338 230.707 133.214 230.067 133.214C229.387 133.214 228.793 133.356 228.285 133.638C227.784 133.915 227.394 134.304 227.118 134.806C226.847 135.307 226.711 135.896 226.711 136.57H224.67C224.67 135.532 224.909 134.621 225.388 133.837C225.866 133.053 226.518 132.442 227.343 132.003C228.173 131.565 229.104 131.346 230.136 131.346C231.174 131.346 232.094 131.565 232.895 132.003C233.697 132.442 234.325 133.033 234.781 133.776C235.236 134.52 235.464 135.348 235.464 136.259C235.464 136.91 235.346 137.548 235.11 138.17C234.879 138.787 234.475 139.476 233.899 140.237C233.328 140.993 232.535 141.915 231.52 143.005L227.542 147.261V147.399H235.775V149.302H224.601Z" fill="#4B4B4B"/>
<path d="M249.996 149.544C248.693 149.544 247.583 149.189 246.667 148.48C245.75 147.765 245.049 146.73 244.565 145.375C244.08 144.014 243.838 142.371 243.838 140.445C243.838 138.531 244.08 136.896 244.565 135.541C245.055 134.18 245.758 133.142 246.675 132.427C247.598 131.706 248.705 131.346 249.996 131.346C251.288 131.346 252.392 131.706 253.309 132.427C254.232 133.142 254.935 134.18 255.419 135.541C255.91 136.896 256.155 138.531 256.155 140.445C256.155 142.371 255.912 144.014 255.428 145.375C254.944 146.73 254.243 147.765 253.326 148.48C252.41 149.189 251.3 149.544 249.996 149.544ZM249.996 147.641C251.288 147.641 252.291 147.018 253.006 145.773C253.721 144.527 254.079 142.751 254.079 140.445C254.079 138.911 253.915 137.605 253.586 136.527C253.263 135.449 252.796 134.627 252.185 134.062C251.579 133.497 250.85 133.214 249.996 133.214C248.716 133.214 247.716 133.846 246.995 135.108C246.274 136.365 245.914 138.144 245.914 140.445C245.914 141.979 246.076 143.282 246.398 144.354C246.721 145.427 247.185 146.243 247.791 146.802C248.402 147.361 249.137 147.641 249.996 147.641Z" fill="#4B4B4B"/>
<path d="M270.09 149.544C268.787 149.544 267.677 149.189 266.76 148.48C265.843 147.765 265.143 146.73 264.658 145.375C264.174 144.014 263.932 142.371 263.932 140.445C263.932 138.531 264.174 136.896 264.658 135.541C265.149 134.18 265.852 133.142 266.769 132.427C267.691 131.706 268.799 131.346 270.09 131.346C271.382 131.346 272.486 131.706 273.403 132.427C274.325 133.142 275.029 134.18 275.513 135.541C276.003 136.896 276.248 138.531 276.248 140.445C276.248 142.371 276.006 144.014 275.522 145.375C275.037 146.73 274.337 147.765 273.42 148.48C272.503 149.189 271.393 149.544 270.09 149.544ZM270.09 147.641C271.382 147.641 272.385 147.018 273.1 145.773C273.815 144.527 274.173 142.751 274.173 140.445C274.173 138.911 274.008 137.605 273.68 136.527C273.357 135.449 272.89 134.627 272.278 134.062C271.673 133.497 270.944 133.214 270.09 133.214C268.81 133.214 267.81 133.846 267.089 135.108C266.368 136.365 266.008 138.144 266.008 140.445C266.008 141.979 266.169 143.282 266.492 144.354C266.815 145.427 267.279 146.243 267.885 146.802C268.496 147.361 269.231 147.641 270.09 147.641Z" fill="#4B4B4B"/>
<path d="M284.484 149.302L292.407 133.629V133.491H283.273V131.588H294.621V133.595L286.733 149.302H284.484Z" fill="#4B4B4B"/>
<path d="M325.439 131.588V133.491H316.894V149.302H314.749V131.588H325.439Z" fill="#4B4B4B"/>
<path d="M347.838 140.445C347.838 142.313 347.5 143.928 346.826 145.289C346.151 146.649 345.226 147.699 344.049 148.437C342.873 149.175 341.53 149.544 340.019 149.544C338.508 149.544 337.165 149.175 335.988 148.437C334.812 147.699 333.887 146.649 333.212 145.289C332.537 143.928 332.2 142.313 332.2 140.445C332.2 138.577 332.537 136.962 333.212 135.601C333.887 134.241 334.812 133.191 335.988 132.453C337.165 131.715 338.508 131.346 340.019 131.346C341.53 131.346 342.873 131.715 344.049 132.453C345.226 133.191 346.151 134.241 346.826 135.601C347.5 136.962 347.838 138.577 347.838 140.445ZM345.762 140.445C345.762 138.911 345.505 137.617 344.992 136.562C344.485 135.506 343.796 134.708 342.925 134.166C342.06 133.624 341.091 133.353 340.019 133.353C338.947 133.353 337.975 133.624 337.104 134.166C336.239 134.708 335.55 135.506 335.037 136.562C334.53 137.617 334.276 138.911 334.276 140.445C334.276 141.979 334.53 143.273 335.037 144.328C335.55 145.384 336.239 146.182 337.104 146.724C337.975 147.266 338.947 147.537 340.019 147.537C341.091 147.537 342.06 147.266 342.925 146.724C343.796 146.182 344.485 145.384 344.992 144.328C345.505 143.273 345.762 141.979 345.762 140.445Z" fill="#4B4B4B"/>
<path d="M354.793 153.592V147.399H355.935C356.327 147.041 356.696 146.537 357.042 145.885C357.394 145.228 357.691 144.352 357.933 143.256C358.181 142.155 358.345 140.756 358.426 139.061L358.807 131.588H369.324V147.399H371.365V153.557H369.324V149.302H356.835V153.592H354.793ZM358.495 147.399H367.283V133.491H360.744L360.467 139.061C360.398 140.353 360.277 141.523 360.104 142.573C359.931 143.616 359.709 144.542 359.438 145.349C359.167 146.151 358.853 146.834 358.495 147.399Z" fill="#4B4B4B"/>
<path d="M380.412 149.544V147.537H381.519C381.946 147.537 382.303 147.454 382.591 147.286C382.885 147.119 383.128 146.903 383.318 146.638C383.514 146.373 383.675 146.096 383.802 145.807L384.079 145.15L377.955 131.588H380.273L385.152 142.59L389.615 131.588H391.898L385.774 146.43C385.532 146.984 385.255 147.497 384.944 147.97C384.638 148.443 384.22 148.823 383.69 149.111C383.165 149.4 382.453 149.544 381.554 149.544H380.412Z" fill="#4B4B4B"/>
<defs>
<linearGradient id="paint0_linear_256_2999" x1="115.121" y1="15.5371" x2="145.141" y2="15.5371" gradientUnits="userSpaceOnUse">
<stop offset="0.1" stop-color="#006E3B"/>
<stop offset="0.7" stop-color="#0C5B82"/>
<stop offset="1" stop-color="#11539F"/>
</linearGradient>
<linearGradient id="paint1_linear_256_2999" x1="130.197" y1="24.4905" x2="99.3708" y2="6.57042" gradientUnits="userSpaceOnUse">
<stop stop-color="#E31921"/>
<stop offset="0.1" stop-color="#E42721"/>
<stop offset="0.4" stop-color="#E63D22"/>
<stop offset="0.5" stop-color="#A8752F"/>
<stop offset="0.7" stop-color="#64B23E"/>
<stop offset="1" stop-color="#65B231"/>
</linearGradient>
</defs>
</svg>
