<svg width="64" height="64" viewBox="0 0 64 64" fill="none" xmlns="http://www.w3.org/2000/svg">
<path d="M32.0004 20.5001C29.7259 20.5001 27.5025 21.1746 25.6114 22.4382C23.7202 23.7019 22.2462 25.4979 21.3758 27.5993C20.5054 29.7006 20.2777 32.0129 20.7214 34.2437C21.1651 36.4745 22.2604 38.5236 23.8687 40.1319C25.477 41.7402 27.5261 42.8354 29.7569 43.2792C31.9877 43.7229 34.2999 43.4952 36.4013 42.6248C38.5026 41.7544 40.2987 40.2804 41.5623 38.3892C42.826 36.498 43.5004 34.2746 43.5004 32.0002C43.4965 28.9514 42.2836 26.0286 40.1278 23.8728C37.972 21.717 35.0492 20.5041 32.0004 20.5001ZM32.0004 40.5001C30.3193 40.5001 28.6759 40.0016 27.2781 39.0676C25.8803 38.1336 24.7908 36.8061 24.1474 35.253C23.5041 33.6998 23.3358 31.9907 23.6637 30.3419C23.9917 28.693 24.8013 27.1785 25.99 25.9897C27.1788 24.801 28.6933 23.9914 30.3422 23.6635C31.991 23.3355 33.7001 23.5038 35.2532 24.1472C36.8064 24.7905 38.1339 25.88 39.0679 27.2778C40.0019 28.6756 40.5004 30.319 40.5004 32.0002C40.5004 34.2545 39.6049 36.4165 38.0108 38.0106C36.4168 39.6046 34.2548 40.5001 32.0004 40.5001ZM53.5004 32.7101C53.5154 32.2376 53.5154 31.7627 53.5004 31.2902L57.3329 26.5002C57.4794 26.3168 57.5808 26.1016 57.629 25.8719C57.6772 25.6422 57.6709 25.4044 57.6104 25.1777C57.0108 22.9178 56.1129 20.7479 54.9404 18.7252C54.824 18.5199 54.6607 18.3449 54.4639 18.2146C54.2671 18.0843 54.0424 18.0022 53.8079 17.9752L47.6954 17.2977C47.3738 16.9527 47.0404 16.6193 46.6954 16.2977L46.0154 10.1826C45.9883 9.94819 45.9063 9.72342 45.776 9.52664C45.6456 9.32986 45.4707 9.1666 45.2654 9.05015C43.2451 7.88104 41.0787 6.9849 38.8229 6.38515C38.5956 6.32574 38.3574 6.32058 38.1277 6.37009C37.898 6.41959 37.6831 6.52237 37.5004 6.67015L32.7004 10.5126C32.2279 10.4976 31.7529 10.4976 31.2804 10.5126L26.5004 6.66765C26.3171 6.52116 26.1019 6.41974 25.8722 6.37154C25.6425 6.32335 25.4047 6.32972 25.1779 6.39015C22.9181 6.98978 20.7482 7.88767 18.7254 9.06015C18.5201 9.1766 18.3452 9.33986 18.2149 9.53664C18.0846 9.73342 18.0025 9.95819 17.9754 10.1926L17.3079 16.3052C16.9629 16.6285 16.6296 16.9618 16.3079 17.3052L10.1904 18.0001C9.95596 18.0272 9.7312 18.1093 9.53441 18.2396C9.33763 18.3699 9.17437 18.5449 9.05792 18.7501C7.88881 20.7705 6.99268 22.9368 6.39292 25.1926C6.33495 25.4172 6.32984 25.6522 6.37799 25.879C6.42614 26.1059 6.52624 26.3185 6.67042 26.5002L10.5129 31.3001C10.4979 31.7726 10.4979 32.2477 10.5129 32.7202L6.66792 37.5127C6.52143 37.696 6.42001 37.9112 6.37181 38.1409C6.32362 38.3706 6.32999 38.6084 6.39042 38.8351C6.99109 41.0907 7.88896 43.2563 9.06042 45.2752C9.17687 45.4804 9.34013 45.6554 9.53691 45.7857C9.7337 45.916 9.95846 45.9981 10.1929 46.0252L16.3054 46.7026C16.6288 47.0476 16.9621 47.381 17.3054 47.7026L18.0004 53.8102C18.0275 54.0446 18.1096 54.2694 18.2399 54.4662C18.3702 54.6629 18.5451 54.8262 18.7504 54.9426C20.7707 56.1118 22.9371 57.0079 25.1929 57.6076C25.4197 57.6681 25.6575 57.6744 25.8872 57.6263C26.1169 57.5781 26.3321 57.4766 26.5154 57.3302L31.2904 53.5001C31.7629 53.5151 32.2379 53.5151 32.7104 53.5001L37.5129 57.3451C37.7792 57.5576 38.1098 57.6731 38.4504 57.6726C38.5803 57.6722 38.7097 57.6554 38.8354 57.6227C41.0909 57.022 43.2566 56.1241 45.2754 54.9526C45.4807 54.8362 45.6556 54.6729 45.786 54.4762C45.9163 54.2794 45.9983 54.0546 46.0254 53.8201L46.7029 47.7076C47.0479 47.386 47.3813 47.0527 47.7029 46.7076L53.8179 46.0276C54.0524 46.0005 54.2771 45.9185 54.4739 45.7882C54.6707 45.6579 54.834 45.4829 54.9504 45.2776C56.12 43.2576 57.0161 41.0911 57.6154 38.8351C57.6759 38.6084 57.6822 38.3706 57.634 38.1409C57.5858 37.9112 57.4844 37.696 57.3379 37.5127L53.5004 32.7101ZM52.7254 43.1176L46.8154 43.7752C46.4461 43.8177 46.1058 43.9959 45.8604 44.2752C45.3663 44.8318 44.8395 45.3585 44.2829 45.8526C44.0037 46.098 43.8255 46.4384 43.7829 46.8076L43.1254 52.7151C41.7417 53.453 40.2879 54.051 38.7854 54.5001L34.1429 50.7851C33.8767 50.5727 33.546 50.4572 33.2054 50.4576H33.1154C32.3727 50.5001 31.6281 50.5001 30.8854 50.4576C30.5145 50.435 30.1483 50.5508 29.8579 50.7826L25.2179 54.5001C23.7168 54.0485 22.2646 53.448 20.8829 52.7076L20.2254 46.8027C20.1828 46.4334 20.0047 46.093 19.7254 45.8476C19.1688 45.3535 18.642 44.8268 18.1479 44.2701C17.9025 43.9909 17.5622 43.8127 17.1929 43.7701L11.2854 43.1126C10.5483 41.733 9.95035 40.2833 9.50042 38.7851L13.2154 34.1427C13.4473 33.8522 13.5631 33.4861 13.5404 33.1152C13.4979 32.3724 13.4979 31.6279 13.5404 30.8852C13.5631 30.5142 13.4473 30.1481 13.2154 29.8577L9.50042 25.2177C9.95205 23.7166 10.5525 22.2643 11.2929 20.8826L17.1979 20.2252C17.5672 20.1826 17.9075 20.0044 18.1529 19.7252C18.647 19.1685 19.1738 18.6418 19.7304 18.1476C20.0097 17.9023 20.1878 17.5619 20.2304 17.1926L20.8879 11.2851C22.2676 10.548 23.7173 9.95007 25.2154 9.50015L29.8579 13.2151C30.1483 13.447 30.5145 13.5628 30.8854 13.5401C31.6281 13.4976 32.3727 13.4976 33.1154 13.5401C33.4864 13.5628 33.8525 13.447 34.1429 13.2151L38.7829 9.50015C40.284 9.95178 41.7362 10.5523 43.1179 11.2926L43.7754 17.2026C43.818 17.5719 43.9962 17.9123 44.2754 18.1576C44.832 18.6518 45.3588 19.1785 45.8529 19.7352C46.0983 20.0144 46.4386 20.1926 46.8079 20.2352L52.7154 20.8926C53.4522 22.2707 54.0502 23.7187 54.5004 25.2152L50.7854 29.8577C50.5535 30.1481 50.4377 30.5142 50.4604 30.8852C50.5029 31.6279 50.5029 32.3724 50.4604 33.1152C50.4377 33.4861 50.5535 33.8522 50.7854 34.1427L54.5004 38.7826C54.0504 40.2836 53.4516 41.7358 52.7129 43.1176H52.7254Z" fill="#696969"/>
</svg>
