<svg width="64" height="64" viewBox="0 0 64 64" fill="none" xmlns="http://www.w3.org/2000/svg">
<path d="M13.5 24V40C13.5 40.3978 13.342 40.7794 13.0607 41.0607C12.7794 41.342 12.3978 41.5 12 41.5C11.6022 41.5 11.2206 41.342 10.9393 41.0607C10.658 40.7794 10.5 40.3978 10.5 40V24C10.5 23.6022 10.658 23.2206 10.9393 22.9393C11.2206 22.658 11.6022 22.5 12 22.5C12.3978 22.5 12.7794 22.658 13.0607 22.9393C13.342 23.2206 13.5 23.6022 13.5 24ZM22 6.5C21.6022 6.5 21.2206 6.65804 20.9393 6.93934C20.658 7.22064 20.5 7.60218 20.5 8V56C20.5 56.3978 20.658 56.7794 20.9393 57.0607C21.2206 57.342 21.6022 57.5 22 57.5C22.3978 57.5 22.7794 57.342 23.0607 57.0607C23.342 56.7794 23.5 56.3978 23.5 56V8C23.5 7.60218 23.342 7.22064 23.0607 6.93934C22.7794 6.65804 22.3978 6.5 22 6.5ZM32 14.5C31.6022 14.5 31.2206 14.658 30.9393 14.9393C30.658 15.2206 30.5 15.6022 30.5 16V48C30.5 48.3978 30.658 48.7794 30.9393 49.0607C31.2206 49.342 31.6022 49.5 32 49.5C32.3978 49.5 32.7794 49.342 33.0607 49.0607C33.342 48.7794 33.5 48.3978 33.5 48V16C33.5 15.6022 33.342 15.2206 33.0607 14.9393C32.7794 14.658 32.3978 14.5 32 14.5ZM42 22.5C41.6022 22.5 41.2206 22.658 40.9393 22.9393C40.658 23.2206 40.5 23.6022 40.5 24V40C40.5 40.3978 40.658 40.7794 40.9393 41.0607C41.2206 41.342 41.6022 41.5 42 41.5C42.3978 41.5 42.7794 41.342 43.0607 41.0607C43.342 40.7794 43.5 40.3978 43.5 40V24C43.5 23.6022 43.342 23.2206 43.0607 22.9393C42.7794 22.658 42.3978 22.5 42 22.5ZM52 18.5C51.6022 18.5 51.2206 18.658 50.9393 18.9393C50.658 19.2206 50.5 19.6022 50.5 20V44C50.5 44.3978 50.658 44.7794 50.9393 45.0607C51.2206 45.342 51.6022 45.5 52 45.5C52.3978 45.5 52.7794 45.342 53.0607 45.0607C53.342 44.7794 53.5 44.3978 53.5 44V20C53.5 19.6022 53.342 19.2206 53.0607 18.9393C52.7794 18.658 52.3978 18.5 52 18.5Z" fill="#696969"/>
</svg>
