<svg width="64" height="64" viewBox="0 0 64 64" fill="none" xmlns="http://www.w3.org/2000/svg">
<path d="M33 45.2545C36.4396 45.2501 39.7371 43.905 42.1693 41.514C44.6015 39.123 45.9699 35.8814 45.9744 32.5V14.7545C45.9744 11.3718 44.6074 8.12766 42.1743 5.73572C39.7411 3.34378 36.441 2 33 2C29.559 2 26.2589 3.34378 23.8257 5.73572C21.3926 8.12766 20.0256 11.3718 20.0256 14.7545V32.5C20.0301 35.8814 21.3985 39.123 23.8307 41.514C26.2629 43.905 29.5604 45.2501 33 45.2545ZM23.4103 14.7545C23.4103 12.2543 24.4206 9.85641 26.219 8.08846C28.0175 6.3205 30.4566 5.32727 33 5.32727C35.5434 5.32727 37.9825 6.3205 39.781 8.08846C41.5794 9.85641 42.5897 12.2543 42.5897 14.7545V32.5C42.5897 35.0003 41.5794 37.3981 39.781 39.1661C37.9825 40.934 35.5434 41.9273 33 41.9273C30.4566 41.9273 28.0175 40.934 26.219 39.1661C24.4206 37.3981 23.4103 35.0003 23.4103 32.5V14.7545ZM34.6923 54.058V61.3364C34.6923 61.7776 34.514 62.2007 34.1966 62.5127C33.8793 62.8247 33.4488 63 33 63C32.5512 63 32.1207 62.8247 31.8034 62.5127C31.486 62.2007 31.3077 61.7776 31.3077 61.3364V54.058C25.7854 53.6333 20.6286 51.1787 16.865 47.1834C13.1013 43.188 11.0072 37.9453 11 32.5C11 32.0588 11.1783 31.6356 11.4957 31.3236C11.813 31.0116 12.2435 30.8364 12.6923 30.8364C13.1411 30.8364 13.5716 31.0116 13.889 31.3236C14.2063 31.6356 14.3846 32.0588 14.3846 32.5C14.3846 37.3535 16.3459 42.0081 19.8369 45.4401C23.328 48.872 28.0629 50.8 33 50.8C37.9371 50.8 42.672 48.872 46.1631 45.4401C49.6541 42.0081 51.6154 37.3535 51.6154 32.5C51.6154 32.0588 51.7937 31.6356 52.1111 31.3236C52.4284 31.0116 52.8589 30.8364 53.3077 30.8364C53.7565 30.8364 54.187 31.0116 54.5043 31.3236C54.8217 31.6356 55 32.0588 55 32.5C54.9928 37.9453 52.8987 43.188 49.135 47.1834C45.3714 51.1787 40.2146 53.6333 34.6923 54.058Z" fill="#696969"/>
</svg>
