<svg width="64" height="64" viewBox="0 0 64 64" fill="none" xmlns="http://www.w3.org/2000/svg">
<path d="M56.2278 17.4376C56.1368 17.2128 55.9926 17.0133 55.8076 16.8564C55.6226 16.6994 55.4023 16.5897 55.1656 16.5366C54.9289 16.4835 54.6828 16.4886 54.4485 16.5515C54.2142 16.6144 53.9986 16.7332 53.8203 16.8976L43.5528 26.3726L38.6753 25.3251L37.6278 20.4476L47.1028 10.1801C47.2673 10.0018 47.3861 9.78626 47.4489 9.55195C47.5118 9.31764 47.5169 9.07157 47.4638 8.83485C47.4107 8.59813 47.301 8.37782 47.1441 8.19282C46.9872 8.00781 46.7877 7.86363 46.5628 7.77264C43.3068 6.45271 39.7288 6.14341 36.2945 6.885C32.8603 7.62658 29.7288 9.38471 27.3075 11.9306C24.8862 14.4765 23.2873 17.6922 22.7189 21.1593C22.1504 24.6264 22.6388 28.1844 24.1203 31.3701L8.77279 44.6201C8.74529 44.6426 8.72029 44.6676 8.69279 44.6951C7.99597 45.3916 7.44315 46.2186 7.0659 47.1287C6.68866 48.0389 6.49437 49.0144 6.49414 49.9996C6.49367 51.9894 7.28365 53.8978 8.69029 55.3051C10.0969 56.7125 12.005 57.5033 13.9948 57.5038C15.9845 57.5043 17.893 56.7143 19.3003 55.3076C19.3278 55.2801 19.3528 55.2551 19.3753 55.2276L32.6253 39.8801C35.8111 41.3617 39.369 41.85 42.8361 41.2815C46.3032 40.7131 49.519 39.1142 52.0648 36.6929C54.6107 34.2717 56.3689 31.1401 57.1104 27.7059C57.852 24.2716 57.5427 20.6937 56.2228 17.4376H56.2278ZM40.0003 38.5001C37.552 38.4991 35.1438 37.8781 33.0003 36.6951C32.6989 36.5282 32.3492 36.4702 32.01 36.5307C31.6708 36.5913 31.3628 36.7667 31.1378 37.0276L17.1428 53.2201C16.293 54.0342 15.1582 54.4831 13.9815 54.4705C12.8048 54.4579 11.6798 53.9848 10.8477 53.1527C10.0156 52.3206 9.54259 51.1956 9.52998 50.0189C9.51737 48.8422 9.96621 47.7074 10.7803 46.8576L26.9703 32.8726C27.2332 32.6467 27.4097 32.3367 27.4699 31.9954C27.53 31.654 27.4701 31.3023 27.3003 31.0001C25.9427 28.5444 25.3268 25.7475 25.5273 22.9487C25.7278 20.1498 26.7361 17.4693 28.4299 15.2321C30.1237 12.995 32.4302 11.2974 35.0698 10.3452C37.7093 9.39297 40.5684 9.22709 43.3003 9.86764L34.8953 18.9826C34.7325 19.1595 34.6147 19.3728 34.5516 19.6047C34.4885 19.8366 34.4821 20.0802 34.5328 20.3151L35.9453 26.9026C36.0059 27.1854 36.1469 27.4446 36.3514 27.6491C36.5558 27.8536 36.815 27.9946 37.0978 28.0551L43.6853 29.4676C43.9202 29.5184 44.1638 29.5119 44.3957 29.4489C44.6276 29.3858 44.841 29.2679 45.0178 29.1051L54.1228 20.7001C54.6171 22.8275 54.6249 25.039 54.1457 27.1698C53.6666 29.3006 52.7127 31.2958 51.3552 33.0068C49.9978 34.7177 48.2717 36.1002 46.3057 37.0514C44.3397 38.0025 42.1843 38.4978 40.0003 38.5001Z" fill="#696969"/>
</svg>
