<svg width="64" height="64" viewBox="0 0 64 64" fill="none" xmlns="http://www.w3.org/2000/svg">
<path d="M61.3925 29.445L57.8925 20.695C57.6347 20.0441 57.1867 19.486 56.6069 19.0936C56.0272 18.7011 55.3426 18.4925 54.6425 18.495H45.5V16C45.5 15.6022 45.342 15.2206 45.0607 14.9393C44.7794 14.658 44.3978 14.5 44 14.5H6C5.07174 14.5 4.1815 14.8687 3.52513 15.5251C2.86875 16.1815 2.5 17.0717 2.5 18V46C2.5 46.9283 2.86875 47.8185 3.52513 48.4749C4.1815 49.1312 5.07174 49.5 6 49.5H10.65C10.9943 51.1954 11.9141 52.7197 13.2536 53.8146C14.5931 54.9094 16.27 55.5075 18 55.5075C19.73 55.5075 21.4069 54.9094 22.7464 53.8146C24.0859 52.7197 25.0057 51.1954 25.35 49.5H38.65C38.9943 51.1954 39.9141 52.7197 41.2536 53.8146C42.5931 54.9094 44.27 55.5075 46 55.5075C47.73 55.5075 49.4069 54.9094 50.7464 53.8146C52.0859 52.7197 53.0057 51.1954 53.35 49.5H58C58.9283 49.5 59.8185 49.1312 60.4749 48.4749C61.1312 47.8185 61.5 46.9283 61.5 46V30C61.4997 29.8099 61.4632 29.6215 61.3925 29.445ZM45.5 21.5H54.645C54.7451 21.4999 54.843 21.5299 54.9259 21.586C55.0088 21.6422 55.0729 21.722 55.11 21.815L57.785 28.5H45.5V21.5ZM5.5 18C5.5 17.8674 5.55268 17.7402 5.64645 17.6464C5.74021 17.5527 5.86739 17.5 6 17.5H42.5V34.5H5.5V18ZM18 52.5C17.11 52.5 16.24 52.2361 15.4999 51.7416C14.7599 51.2471 14.1831 50.5443 13.8425 49.7221C13.5019 48.8998 13.4128 47.995 13.5865 47.1221C13.7601 46.2492 14.1887 45.4474 14.818 44.818C15.4474 44.1887 16.2492 43.7601 17.1221 43.5865C17.995 43.4128 18.8998 43.5019 19.7221 43.8425C20.5443 44.1831 21.2471 44.7599 21.7416 45.4999C22.2361 46.24 22.5 47.11 22.5 48C22.5 49.1935 22.0259 50.3381 21.182 51.182C20.3381 52.0259 19.1935 52.5 18 52.5ZM38.65 46.5H25.35C25.0057 44.8046 24.0859 43.2803 22.7464 42.1854C21.4069 41.0906 19.73 40.4925 18 40.4925C16.27 40.4925 14.5931 41.0906 13.2536 42.1854C11.9141 43.2803 10.9943 44.8046 10.65 46.5H6C5.86739 46.5 5.74021 46.4473 5.64645 46.3536C5.55268 46.2598 5.5 46.1326 5.5 46V37.5H42.5V41.37C41.52 41.8886 40.6666 42.6174 40.0011 43.5043C39.3355 44.3911 38.8741 45.4141 38.65 46.5ZM46 52.5C45.11 52.5 44.24 52.2361 43.4999 51.7416C42.7599 51.2471 42.1831 50.5443 41.8425 49.7221C41.5019 48.8998 41.4128 47.995 41.5865 47.1221C41.7601 46.2492 42.1887 45.4474 42.818 44.818C43.4474 44.1887 44.2492 43.7601 45.1221 43.5865C45.995 43.4128 46.8998 43.5019 47.7221 43.8425C48.5443 44.1831 49.2471 44.7599 49.7416 45.4999C50.2361 46.24 50.5 47.11 50.5 48C50.5 49.1935 50.0259 50.3381 49.182 51.182C48.3381 52.0259 47.1935 52.5 46 52.5ZM58.5 46C58.5 46.1326 58.4473 46.2598 58.3536 46.3536C58.2598 46.4473 58.1326 46.5 58 46.5H53.35C53.002 44.807 52.081 43.2858 50.7421 42.1929C49.4032 41.0999 47.7284 40.502 46 40.5C45.8325 40.5 45.665 40.5 45.5 40.5175V31.5H58.5V46Z" fill="#696969"/>
</svg>
