<svg width="64" height="64" viewBox="0 0 64 64" fill="none" xmlns="http://www.w3.org/2000/svg">
<path d="M60.4779 29.5248L56.4779 25.5248C55.8317 24.8795 54.9589 24.5123 54.0458 24.5016C53.1327 24.4908 52.2515 24.8374 51.5904 25.4673L38.5329 12.4098C39.1628 11.7487 39.5093 10.8675 39.4986 9.95437C39.4878 9.04124 39.1206 8.16848 38.4754 7.52232L34.4754 3.52232C34.1503 3.19728 33.7645 2.93944 33.3398 2.76353C32.9152 2.58761 32.46 2.49707 32.0004 2.49707C31.5407 2.49707 31.0855 2.58761 30.6609 2.76353C30.2362 2.93944 29.8504 3.19728 29.5254 3.52232L13.5254 19.5223C13.2003 19.8473 12.9425 20.2332 12.7666 20.6578C12.5906 21.0825 12.5001 21.5377 12.5001 21.9973C12.5001 22.457 12.5906 22.9121 12.7666 23.3368C12.9425 23.7615 13.2003 24.1473 13.5254 24.4723L17.5254 28.4723C18.1715 29.1176 19.0443 29.4848 19.9574 29.4956C20.8705 29.5063 21.7517 29.1597 22.4129 28.5298L24.8804 30.9998L8.18285 47.6973C7.19433 48.7914 6.66385 50.2233 6.70105 51.6973C6.73825 53.1713 7.34028 54.5747 8.38273 55.6175C9.42518 56.6603 10.8284 57.2627 12.3024 57.3004C13.7764 57.338 15.2085 56.808 16.3029 55.8198L33.0004 39.1223L35.4679 41.5898C34.8379 42.251 34.4914 43.1321 34.5021 44.0453C34.5129 44.9584 34.8801 45.8312 35.5254 46.4773L39.5254 50.4773C39.8504 50.8024 40.2362 51.0602 40.6609 51.2361C41.0855 51.412 41.5407 51.5026 42.0004 51.5026C42.46 51.5026 42.9152 51.412 43.3398 51.2361C43.7645 51.0602 44.1503 50.8024 44.4754 50.4773L60.4754 34.4773C60.8009 34.1524 61.0593 33.7666 61.2356 33.3417C61.412 32.9169 61.5029 32.4615 61.5031 32.0016C61.5033 31.5416 61.4129 31.0861 61.237 30.6612C61.0611 30.2362 60.8031 29.85 60.4779 29.5248ZM37.5879 39.4648L24.5354 26.4148L36.4154 14.5348L49.4654 27.5848L37.5879 39.4648ZM19.6479 26.3523L15.6479 22.3523C15.6014 22.3059 15.5645 22.2507 15.5393 22.19C15.5142 22.1293 15.5012 22.0643 15.5012 21.9986C15.5012 21.9329 15.5142 21.8678 15.5393 21.8071C15.5645 21.7464 15.6014 21.6913 15.6479 21.6448L31.6479 5.64482C31.6943 5.59833 31.7494 5.56146 31.8101 5.53629C31.8708 5.51113 31.9359 5.49818 32.0016 5.49818C32.0673 5.49818 32.1324 5.51113 32.1931 5.53629C32.2538 5.56146 32.3089 5.59833 32.3554 5.64482L36.3554 9.64482C36.4018 9.69126 36.4387 9.7464 36.4639 9.8071C36.489 9.8678 36.502 9.93286 36.502 9.99857C36.502 10.0643 36.489 10.1293 36.4639 10.19C36.4387 10.2507 36.4018 10.3059 36.3554 10.3523L20.3554 26.3523C20.3089 26.3988 20.2538 26.4357 20.1931 26.4609C20.1324 26.486 20.0673 26.499 20.0016 26.499C19.9359 26.499 19.8708 26.486 19.8101 26.4609C19.7494 26.4357 19.6943 26.3988 19.6479 26.3523ZM14.1829 53.6998C13.6576 54.1577 12.9781 54.3992 12.2817 54.3754C11.5853 54.3515 10.9239 54.0642 10.4312 53.5715C9.93844 53.0788 9.65113 52.4174 9.62731 51.721C9.6035 51.0246 9.84494 50.3451 10.3029 49.8198L27.0004 33.1223L30.8804 36.9998L14.1829 53.6998ZM58.3554 32.3548L42.3554 48.3548C42.3089 48.4013 42.2538 48.4382 42.1931 48.4634C42.1324 48.4885 42.0673 48.5015 42.0016 48.5015C41.9359 48.5015 41.8708 48.4885 41.8101 48.4634C41.7494 48.4382 41.6943 48.4013 41.6479 48.3548L37.6479 44.3548C37.6014 44.3084 37.5645 44.2532 37.5393 44.1925C37.5142 44.1318 37.5012 44.0668 37.5012 44.0011C37.5012 43.9354 37.5142 43.8703 37.5393 43.8096C37.5645 43.7489 37.6014 43.6938 37.6479 43.6473L53.6479 27.6473C53.6943 27.6008 53.7494 27.564 53.8101 27.5388C53.8708 27.5136 53.9359 27.5007 54.0016 27.5007C54.0673 27.5007 54.1324 27.5136 54.1931 27.5388C54.2538 27.564 54.3089 27.6008 54.3554 27.6473L58.3554 31.6473C58.4018 31.6938 58.4387 31.7489 58.4639 31.8096C58.489 31.8703 58.502 31.9354 58.502 32.0011C58.502 32.0668 58.489 32.1318 58.4639 32.1925C58.4387 32.2532 58.4018 32.3084 58.3554 32.3548Z" fill="#696969"/>
</svg>
