<svg width="64" height="64" viewBox="0 0 64 64" fill="none" xmlns="http://www.w3.org/2000/svg">
<path d="M62.4801 28.35L45.6176 11.3725C41.204 6.96988 35.2236 4.49865 28.9895 4.50147C22.7554 4.50428 16.7773 6.98089 12.3676 11.3875L8.9201 14.945C8.64328 15.2311 8.49145 15.6155 8.49801 16.0135C8.50458 16.4116 8.669 16.7907 8.9551 17.0675C9.2412 17.3444 9.62555 17.4962 10.0236 17.4896C10.4216 17.4831 10.8008 17.3186 11.0776 17.0325L14.5001 13.5C16.0071 11.9904 17.7404 10.7251 19.6376 9.75003L31.8876 22L7.5226 46.35C7.19718 46.6751 6.93902 47.0611 6.76289 47.486C6.58675 47.9109 6.49609 48.3663 6.49609 48.8263C6.49609 49.2862 6.58675 49.7417 6.76289 50.1666C6.93902 50.5915 7.19718 50.9775 7.5226 51.3025L12.6951 56.475C13.0201 56.8001 13.406 57.0579 13.8306 57.2338C14.2553 57.4097 14.7104 57.5003 15.1701 57.5003C15.6298 57.5003 16.0849 57.4097 16.5096 57.2338C16.9342 57.0579 17.3201 56.8001 17.6451 56.475L42.0001 32.115L50.3551 40.47C50.6801 40.7951 51.066 41.0529 51.4906 41.2288C51.9153 41.4048 52.3704 41.4953 52.8301 41.4953C53.2898 41.4953 53.7449 41.4048 54.1696 41.2288C54.5942 41.0529 54.9801 40.7951 55.3051 40.47L62.4751 33.2975C63.1315 32.6419 63.5007 31.7525 63.5016 30.8248C63.5025 29.8971 63.1351 29.007 62.4801 28.35ZM15.5251 54.3525C15.4787 54.399 15.4235 54.4359 15.3628 54.4611C15.3021 54.4862 15.2371 54.4992 15.1713 54.4992C15.1056 54.4992 15.0406 54.4862 14.9799 54.4611C14.9192 54.4359 14.864 54.399 14.8176 54.3525L9.6451 49.18C9.59861 49.1336 9.56173 49.0785 9.53657 49.0178C9.51141 48.9571 9.49845 48.892 9.49845 48.8263C9.49845 48.7606 9.51141 48.6955 9.53657 48.6348C9.56173 48.5741 9.59861 48.519 9.6451 48.4725L27.0001 31.115L32.8776 37L15.5251 54.3525ZM40.9401 28.9325L35.0001 34.8725L29.1201 29L35.0601 23.06C35.1996 22.9207 35.3102 22.7553 35.3857 22.5732C35.4612 22.3911 35.5 22.1959 35.5 21.9988C35.5 21.8017 35.4612 21.6065 35.3857 21.4244C35.3102 21.2423 35.1996 21.0768 35.0601 20.9375L22.6351 8.50003C26.2356 7.32677 30.0906 7.17286 33.7733 8.05535C37.4559 8.93784 40.8224 10.8223 43.5001 13.5L54.9051 24.9825L47.0001 32.8725L43.0601 28.9325C42.7789 28.6516 42.3976 28.4939 42.0001 28.4939C41.6026 28.4939 41.2213 28.6516 40.9401 28.9325ZM60.3551 31.1825L53.1826 38.3575C53.1362 38.404 53.081 38.4409 53.0203 38.4661C52.9596 38.4912 52.8946 38.5042 52.8289 38.5042C52.7631 38.5042 52.6981 38.4912 52.6374 38.4661C52.5767 38.4409 52.5215 38.404 52.4751 38.3575L49.1226 35L57.0126 27.1075L60.3551 30.4725C60.4475 30.5661 60.4993 30.6923 60.4993 30.8238C60.4993 30.9553 60.4475 31.0815 60.3551 31.175V31.1825Z" fill="#696969"/>
</svg>
