<svg width="64" height="64" viewBox="0 0 64 64" fill="none" xmlns="http://www.w3.org/2000/svg">
<path d="M54 19.5C54.9283 19.5 55.8185 19.1313 56.4749 18.4749C57.1312 17.8185 57.5 16.9283 57.5 16V12C57.5 11.0717 57.1312 10.1815 56.4749 9.52513C55.8185 8.86875 54.9283 8.5 54 8.5H10C9.07174 8.5 8.1815 8.86875 7.52513 9.52513C6.86875 10.1815 6.5 11.0717 6.5 12V16C6.5 16.9283 6.86875 17.8185 7.52513 18.4749C8.1815 19.1313 9.07174 19.5 10 19.5H10.5V44.5H8C7.60218 44.5 7.22064 44.658 6.93934 44.9393C6.65804 45.2206 6.5 45.6022 6.5 46C6.5 46.3978 6.65804 46.7794 6.93934 47.0607C7.22064 47.342 7.60218 47.5 8 47.5H30.5V52.71C29.2228 53.072 28.1197 53.8838 27.3941 54.9955C26.6686 56.1072 26.3696 57.4438 26.5524 58.7587C26.7351 60.0736 27.3873 61.278 28.3885 62.1497C29.3898 63.0214 30.6725 63.5015 32 63.5015C33.3275 63.5015 34.6102 63.0214 35.6115 62.1497C36.6127 61.278 37.2649 60.0736 37.4476 58.7587C37.6304 57.4438 37.3314 56.1072 36.6059 54.9955C35.8803 53.8838 34.7772 53.072 33.5 52.71V47.5H56C56.3978 47.5 56.7794 47.342 57.0607 47.0607C57.342 46.7794 57.5 46.3978 57.5 46C57.5 45.6022 57.342 45.2206 57.0607 44.9393C56.7794 44.658 56.3978 44.5 56 44.5H53.5V19.5H54ZM34.5 58C34.5 58.4945 34.3534 58.9778 34.0787 59.3889C33.804 59.8 33.4135 60.1205 32.9567 60.3097C32.4999 60.4989 31.9972 60.5484 31.5123 60.452C31.0273 60.3555 30.5819 60.1174 30.2322 59.7678C29.8826 59.4181 29.6445 58.9727 29.548 58.4877C29.4516 58.0028 29.5011 57.5001 29.6903 57.0433C29.8795 56.5865 30.2 56.196 30.6111 55.9213C31.0222 55.6466 31.5055 55.5 32 55.5C32.663 55.5 33.2989 55.7634 33.7678 56.2322C34.2366 56.7011 34.5 57.337 34.5 58ZM9.5 16V12C9.5 11.8674 9.55268 11.7402 9.64645 11.6464C9.74021 11.5527 9.86739 11.5 10 11.5H54C54.1326 11.5 54.2598 11.5527 54.3536 11.6464C54.4473 11.7402 54.5 11.8674 54.5 12V16C54.5 16.1326 54.4473 16.2598 54.3536 16.3536C54.2598 16.4473 54.1326 16.5 54 16.5H10C9.86739 16.5 9.74021 16.4473 9.64645 16.3536C9.55268 16.2598 9.5 16.1326 9.5 16ZM50.5 44.5H13.5V19.5H50.5V44.5Z" fill="#696969"/>
</svg>
