<svg width="64" height="64" viewBox="0 0 64 64" fill="none" xmlns="http://www.w3.org/2000/svg">
<path d="M52 34.5H12C11.0717 34.5 10.1815 34.8687 9.52513 35.5251C8.86875 36.1815 8.5 37.0717 8.5 38V50C8.5 50.9283 8.86875 51.8185 9.52513 52.4749C10.1815 53.1312 11.0717 53.5 12 53.5H52C52.9283 53.5 53.8185 53.1312 54.4749 52.4749C55.1312 51.8185 55.5 50.9283 55.5 50V38C55.5 37.0717 55.1312 36.1815 54.4749 35.5251C53.8185 34.8687 52.9283 34.5 52 34.5ZM52.5 50C52.5 50.1326 52.4473 50.2598 52.3536 50.3536C52.2598 50.4473 52.1326 50.5 52 50.5H12C11.8674 50.5 11.7402 50.4473 11.6464 50.3536C11.5527 50.2598 11.5 50.1326 11.5 50V38C11.5 37.8674 11.5527 37.7402 11.6464 37.6464C11.7402 37.5527 11.8674 37.5 12 37.5H52C52.1326 37.5 52.2598 37.5527 52.3536 37.6464C52.4473 37.7402 52.5 37.8674 52.5 38V50ZM52 10.5H12C11.0717 10.5 10.1815 10.8687 9.52513 11.5251C8.86875 12.1815 8.5 13.0717 8.5 14V26C8.5 26.4596 8.59053 26.9148 8.76642 27.3394C8.94231 27.764 9.20012 28.1499 9.52513 28.4749C9.85013 28.7999 10.236 29.0577 10.6606 29.2336C11.0852 29.4095 11.5404 29.5 12 29.5H52C52.4596 29.5 52.9148 29.4095 53.3394 29.2336C53.764 29.0577 54.1499 28.7999 54.4749 28.4749C54.7999 28.1499 55.0577 27.764 55.2336 27.3394C55.4095 26.9148 55.5 26.4596 55.5 26V14C55.5 13.0717 55.1312 12.1815 54.4749 11.5251C53.8185 10.8687 52.9283 10.5 52 10.5ZM52.5 26C52.5 26.1326 52.4473 26.2598 52.3536 26.3536C52.2598 26.4473 52.1326 26.5 52 26.5H12C11.8674 26.5 11.7402 26.4473 11.6464 26.3536C11.5527 26.2598 11.5 26.1326 11.5 26V14C11.5 13.8674 11.5527 13.7402 11.6464 13.6464C11.7402 13.5527 11.8674 13.5 12 13.5H52C52.1326 13.5 52.2598 13.5527 52.3536 13.6464C52.4473 13.7402 52.5 13.8674 52.5 14V26ZM47.5 20C47.5 20.4945 47.3534 20.9778 47.0787 21.3889C46.804 21.8 46.4135 22.1205 45.9567 22.3097C45.4999 22.4989 44.9972 22.5484 44.5123 22.452C44.0273 22.3555 43.5819 22.1174 43.2322 21.7678C42.8826 21.4181 42.6445 20.9727 42.548 20.4877C42.4516 20.0028 42.5011 19.5001 42.6903 19.0433C42.8795 18.5865 43.2 18.196 43.6111 17.9213C44.0222 17.6466 44.5055 17.5 45 17.5C45.663 17.5 46.2989 17.7634 46.7678 18.2322C47.2366 18.7011 47.5 19.337 47.5 20ZM47.5 44C47.5 44.4945 47.3534 44.9778 47.0787 45.3889C46.804 45.8 46.4135 46.1205 45.9567 46.3097C45.4999 46.4989 44.9972 46.5484 44.5123 46.452C44.0273 46.3555 43.5819 46.1174 43.2322 45.7678C42.8826 45.4181 42.6445 44.9727 42.548 44.4877C42.4516 44.0028 42.5011 43.5001 42.6903 43.0433C42.8795 42.5865 43.2 42.196 43.6111 41.9213C44.0222 41.6466 44.5055 41.5 45 41.5C45.663 41.5 46.2989 41.7634 46.7678 42.2322C47.2366 42.7011 47.5 43.337 47.5 44Z" fill="#696969"/>
</svg>
