<svg width="18" height="18" viewBox="0 0 18 18" fill="none" xmlns="http://www.w3.org/2000/svg">
<path d="M9 16.3636C9.96701 16.3636 10.9245 16.1732 11.8179 15.8031C12.7113 15.4331 13.5231 14.8907 14.2069 14.2069C14.8907 13.5231 15.4331 12.7113 15.8031 11.8179C16.1732 10.9245 16.3636 9.96701 16.3636 9C16.3636 8.03299 16.1732 7.07546 15.8031 6.18206C15.4331 5.28866 14.8907 4.4769 14.2069 3.79312C13.5231 3.10935 12.7113 2.56694 11.8179 2.19689C10.9245 1.82683 9.96701 1.63636 9 1.63636C7.04704 1.63636 5.17407 2.41217 3.79312 3.79312C2.41217 5.17407 1.63636 7.04704 1.63636 9C1.63636 10.953 2.41217 12.8259 3.79312 14.2069C5.17407 15.5878 7.04704 16.3636 9 16.3636ZM18 9C18 13.9705 13.9705 18 9 18C4.02955 18 0 13.9705 0 9C0 4.02955 4.02955 0 9 0C13.9705 0 18 4.02955 18 9Z" fill="#696969"/>
<path d="M8 9.70148L11.6941 13L13 11.834L9.84706 9.01869V4H8V9.70148Z" fill="#696969"/>
</svg>
