<svg width="38" height="38" viewBox="0 0 38 38" fill="none" xmlns="http://www.w3.org/2000/svg">
<path d="M19 25.8281C20.8102 25.8258 22.5456 25.1056 23.8256 23.8256C25.1056 22.5456 25.8258 20.8102 25.8281 19V9.5C25.8281 7.68907 25.1087 5.95231 23.8282 4.67179C22.5477 3.39126 20.8109 2.67188 19 2.67188C17.1891 2.67188 15.4523 3.39126 14.1718 4.67179C12.8913 5.95231 12.1719 7.68907 12.1719 9.5V19C12.1742 20.8102 12.8944 22.5456 14.1744 23.8256C15.4544 25.1056 17.1898 25.8258 19 25.8281ZM13.9531 9.5C13.9531 8.16149 14.4848 6.87779 15.4313 5.93132C16.3778 4.98485 17.6615 4.45312 19 4.45312C20.3385 4.45312 21.6222 4.98485 22.5687 5.93132C23.5152 6.87779 24.0469 8.16149 24.0469 9.5V19C24.0469 20.3385 23.5152 21.6222 22.5687 22.5687C21.6222 23.5152 20.3385 24.0469 19 24.0469C17.6615 24.0469 16.3778 23.5152 15.4313 22.5687C14.4848 21.6222 13.9531 20.3385 13.9531 19V9.5ZM19.8906 30.541V34.4375C19.8906 34.6737 19.7968 34.9002 19.6298 35.0673C19.4627 35.2343 19.2362 35.3281 19 35.3281C18.7638 35.3281 18.5373 35.2343 18.3702 35.0673C18.2032 34.9002 18.1094 34.6737 18.1094 34.4375V30.541C15.2031 30.3137 12.4892 28.9996 10.5085 26.8607C8.52776 24.7218 7.42569 21.9151 7.42188 19C7.42187 18.7638 7.51571 18.5373 7.68273 18.3702C7.84976 18.2032 8.07629 18.1094 8.3125 18.1094C8.54871 18.1094 8.77524 18.2032 8.94227 18.3702C9.10929 18.5373 9.20312 18.7638 9.20312 19C9.20312 21.5983 10.2353 24.0902 12.0726 25.9274C13.9098 27.7647 16.4017 28.7969 19 28.7969C21.5983 28.7969 24.0902 27.7647 25.9274 25.9274C27.7647 24.0902 28.7969 21.5983 28.7969 19C28.7969 18.7638 28.8907 18.5373 29.0577 18.3702C29.2248 18.2032 29.4513 18.1094 29.6875 18.1094C29.9237 18.1094 30.1502 18.2032 30.3173 18.3702C30.4843 18.5373 30.5781 18.7638 30.5781 19C30.5743 21.9151 29.4722 24.7218 27.4915 26.8607C25.5108 28.9996 22.7969 30.3137 19.8906 30.541Z" fill="black"/>
</svg>
