<svg width="38" height="38" viewBox="0 0 38 38" fill="none" xmlns="http://www.w3.org/2000/svg">
<path d="M35.9076 17.5306L33.5326 15.1556C33.149 14.7725 32.6308 14.5545 32.0886 14.5481C31.5464 14.5417 31.0232 14.7475 30.6307 15.1215L22.8778 7.36861C23.2518 6.97605 23.4576 6.45285 23.4512 5.91068C23.4448 5.36851 23.2268 4.85031 22.8436 4.46665L20.4686 2.09165C20.2757 1.89866 20.0466 1.74557 19.7944 1.64112C19.5423 1.53667 19.272 1.48291 18.9991 1.48291C18.7262 1.48291 18.4559 1.53667 18.2038 1.64112C17.9517 1.74557 17.7226 1.89866 17.5296 2.09165L8.02958 11.5917C7.83659 11.7846 7.68349 12.0137 7.57904 12.2659C7.4746 12.518 7.42084 12.7883 7.42084 13.0612C7.42084 13.3341 7.4746 13.6044 7.57904 13.8565C7.68349 14.1086 7.83659 14.3377 8.02958 14.5307L10.4046 16.9057C10.7882 17.2889 11.3064 17.5069 11.8486 17.5133C12.3908 17.5196 12.914 17.3139 13.3065 16.9399L14.7716 18.4064L4.85747 28.3206C4.27053 28.9701 3.95556 29.8204 3.97765 30.6956C3.99974 31.5708 4.35719 32.404 4.97615 33.0232C5.5951 33.6423 6.42826 34 7.30344 34.0224C8.17863 34.0447 9.02896 33.73 9.67872 33.1433L19.5929 23.2292L21.0579 24.6942C20.6839 25.0868 20.4782 25.61 20.4845 26.1522C20.4909 26.6943 20.7089 27.2125 21.0921 27.5962L23.4671 29.9712C23.6601 30.1642 23.8892 30.3173 24.1413 30.4217C24.3934 30.5262 24.6637 30.5799 24.9366 30.5799C25.2095 30.5799 25.4798 30.5262 25.7319 30.4217C25.9841 30.3173 26.2132 30.1642 26.4061 29.9712L35.9061 20.4712C36.0995 20.2783 36.2529 20.0492 36.3576 19.7969C36.4623 19.5447 36.5162 19.2743 36.5164 19.0012C36.5165 18.7281 36.4628 18.4577 36.3584 18.2053C36.2539 17.953 36.1007 17.7237 35.9076 17.5306ZM22.3167 23.4325L14.5668 15.6841L21.6205 8.63033L29.369 16.3788L22.3167 23.4325ZM11.6648 15.647L9.28981 13.272C9.26221 13.2444 9.24031 13.2117 9.22537 13.1756C9.21043 13.1396 9.20274 13.1009 9.20274 13.0619C9.20274 13.0229 9.21043 12.9843 9.22537 12.9482C9.24031 12.9122 9.26221 12.8795 9.28981 12.8519L18.7898 3.35189C18.8174 3.32429 18.8501 3.30239 18.8862 3.28745C18.9222 3.27251 18.9608 3.26482 18.9999 3.26482C19.0389 3.26482 19.0775 3.27251 19.1135 3.28745C19.1496 3.30239 19.1823 3.32429 19.2099 3.35189L21.5849 5.72689C21.6125 5.75446 21.6344 5.7872 21.6493 5.82324C21.6643 5.85928 21.672 5.89791 21.672 5.93693C21.672 5.97594 21.6643 6.01457 21.6493 6.05061C21.6344 6.08665 21.6125 6.11939 21.5849 6.14697L12.0849 15.647C12.0573 15.6746 12.0246 15.6965 11.9885 15.7114C11.9525 15.7263 11.9139 15.734 11.8749 15.734C11.8358 15.734 11.7972 15.7263 11.7612 15.7114C11.7251 15.6965 11.6924 15.6746 11.6648 15.647ZM8.41997 31.8845C8.10811 32.1564 7.70466 32.2998 7.29117 32.2856C6.87767 32.2715 6.48496 32.1009 6.1924 31.8084C5.89985 31.5158 5.72926 31.1231 5.71512 30.7096C5.70098 30.2961 5.84434 29.8927 6.11622 29.5808L16.0304 19.6667L18.3341 21.9689L8.41997 31.8845ZM34.6474 19.211L25.1474 28.711C25.1198 28.7386 25.0871 28.7605 25.051 28.7754C25.015 28.7903 24.9764 28.798 24.9374 28.798C24.8983 28.798 24.8597 28.7903 24.8237 28.7754C24.7876 28.7605 24.7549 28.7386 24.7273 28.711L22.3523 26.336C22.3247 26.3084 22.3028 26.2756 22.2879 26.2396C22.2729 26.2036 22.2652 26.1649 22.2652 26.1259C22.2652 26.0869 22.2729 26.0483 22.2879 26.0122C22.3028 25.9762 22.3247 25.9434 22.3523 25.9159L31.8523 16.4159C31.8799 16.3883 31.9126 16.3664 31.9487 16.3514C31.9847 16.3365 32.0233 16.3288 32.0624 16.3288C32.1014 16.3288 32.14 16.3365 32.176 16.3514C32.2121 16.3664 32.2448 16.3883 32.2724 16.4159L34.6474 18.7909C34.675 18.8184 34.6969 18.8512 34.7118 18.8872C34.7268 18.9233 34.7345 18.9619 34.7345 19.0009C34.7345 19.0399 34.7268 19.0786 34.7118 19.1146C34.6969 19.1506 34.675 19.1834 34.6474 19.211Z" fill="black"/>
</svg>
