<svg width="38" height="38" viewBox="0 0 38 38" fill="none" xmlns="http://www.w3.org/2000/svg">
<path d="M32.0625 11.5781C32.6137 11.5781 33.1422 11.3592 33.532 10.9695C33.9217 10.5797 34.1406 10.0512 34.1406 9.5V7.125C34.1406 6.57385 33.9217 6.04527 33.532 5.65554C33.1422 5.26582 32.6137 5.04688 32.0625 5.04688H5.9375C5.38635 5.04688 4.85777 5.26582 4.46804 5.65554C4.07832 6.04527 3.85938 6.57385 3.85938 7.125V9.5C3.85938 10.0512 4.07832 10.5797 4.46804 10.9695C4.85777 11.3592 5.38635 11.5781 5.9375 11.5781H6.23438V26.4219H4.75C4.51379 26.4219 4.28726 26.5157 4.12023 26.6827C3.95321 26.8498 3.85938 27.0763 3.85938 27.3125C3.85938 27.5487 3.95321 27.7752 4.12023 27.9423C4.28726 28.1093 4.51379 28.2031 4.75 28.2031H18.1094V31.2966C17.351 31.5115 16.6961 31.9935 16.2653 32.6536C15.8345 33.3137 15.657 34.1073 15.7655 34.888C15.874 35.6687 16.2612 36.3838 16.8557 36.9014C17.4502 37.4189 18.2118 37.704 19 37.704C19.7882 37.704 20.5498 37.4189 21.1443 36.9014C21.7388 36.3838 22.126 35.6687 22.2345 34.888C22.343 34.1073 22.1655 33.3137 21.7347 32.6536C21.3039 31.9935 20.649 31.5115 19.8906 31.2966V28.2031H33.25C33.4862 28.2031 33.7127 28.1093 33.8798 27.9423C34.0468 27.7752 34.1406 27.5487 34.1406 27.3125C34.1406 27.0763 34.0468 26.8498 33.8798 26.6827C33.7127 26.5157 33.4862 26.4219 33.25 26.4219H31.7656V11.5781H32.0625ZM20.4844 34.4375C20.4844 34.7311 20.3973 35.0181 20.2342 35.2622C20.0711 35.5063 19.8393 35.6965 19.568 35.8089C19.2968 35.9212 18.9984 35.9506 18.7104 35.8934C18.4225 35.8361 18.158 35.6947 17.9504 35.4871C17.7428 35.2795 17.6014 35.015 17.5441 34.7271C17.4869 34.4391 17.5163 34.1407 17.6286 33.8695C17.741 33.5982 17.9312 33.3664 18.1753 33.2033C18.4194 33.0402 18.7064 32.9531 19 32.9531C19.3937 32.9531 19.7712 33.1095 20.0496 33.3879C20.328 33.6663 20.4844 34.0438 20.4844 34.4375ZM5.64062 9.5V7.125C5.64062 7.04626 5.6719 6.97075 5.72758 6.91508C5.78325 6.8594 5.85876 6.82812 5.9375 6.82812H32.0625C32.1412 6.82812 32.2167 6.8594 32.2724 6.91508C32.3281 6.97075 32.3594 7.04626 32.3594 7.125V9.5C32.3594 9.57874 32.3281 9.65425 32.2724 9.70992C32.2167 9.7656 32.1412 9.79688 32.0625 9.79688H5.9375C5.85876 9.79688 5.78325 9.7656 5.72758 9.70992C5.6719 9.65425 5.64062 9.57874 5.64062 9.5ZM29.9844 26.4219H8.01562V11.5781H29.9844V26.4219Z" fill="black"/>
</svg>
