<svg width="38" height="38" viewBox="0 0 38 38" fill="none" xmlns="http://www.w3.org/2000/svg">
<path d="M8.01562 14.25V23.75C8.01562 23.9862 7.92179 24.2127 7.75477 24.3798C7.58774 24.5468 7.36121 24.6406 7.125 24.6406C6.88879 24.6406 6.66226 24.5468 6.49523 24.3798C6.32821 24.2127 6.23438 23.9862 6.23438 23.75V14.25C6.23438 14.0138 6.32821 13.7873 6.49523 13.6202C6.66226 13.4532 6.88879 13.3594 7.125 13.3594C7.36121 13.3594 7.58774 13.4532 7.75477 13.6202C7.92179 13.7873 8.01562 14.0138 8.01562 14.25ZM13.0625 3.85938C12.8263 3.85938 12.5998 3.95321 12.4327 4.12023C12.2657 4.28726 12.1719 4.51379 12.1719 4.75V33.25C12.1719 33.4862 12.2657 33.7127 12.4327 33.8798C12.5998 34.0468 12.8263 34.1406 13.0625 34.1406C13.2987 34.1406 13.5252 34.0468 13.6923 33.8798C13.8593 33.7127 13.9531 33.4862 13.9531 33.25V4.75C13.9531 4.51379 13.8593 4.28726 13.6923 4.12023C13.5252 3.95321 13.2987 3.85938 13.0625 3.85938ZM19 8.60938C18.7638 8.60938 18.5373 8.70321 18.3702 8.87023C18.2032 9.03726 18.1094 9.26379 18.1094 9.5V28.5C18.1094 28.7362 18.2032 28.9627 18.3702 29.1298C18.5373 29.2968 18.7638 29.3906 19 29.3906C19.2362 29.3906 19.4627 29.2968 19.6298 29.1298C19.7968 28.9627 19.8906 28.7362 19.8906 28.5V9.5C19.8906 9.26379 19.7968 9.03726 19.6298 8.87023C19.4627 8.70321 19.2362 8.60938 19 8.60938ZM24.9375 13.3594C24.7013 13.3594 24.4748 13.4532 24.3077 13.6202C24.1407 13.7873 24.0469 14.0138 24.0469 14.25V23.75C24.0469 23.9862 24.1407 24.2127 24.3077 24.3798C24.4748 24.5468 24.7013 24.6406 24.9375 24.6406C25.1737 24.6406 25.4002 24.5468 25.5673 24.3798C25.7343 24.2127 25.8281 23.9862 25.8281 23.75V14.25C25.8281 14.0138 25.7343 13.7873 25.5673 13.6202C25.4002 13.4532 25.1737 13.3594 24.9375 13.3594ZM30.875 10.9844C30.6388 10.9844 30.4123 11.0782 30.2452 11.2452C30.0782 11.4123 29.9844 11.6388 29.9844 11.875V26.125C29.9844 26.3612 30.0782 26.5877 30.2452 26.7548C30.4123 26.9218 30.6388 27.0156 30.875 27.0156C31.1112 27.0156 31.3377 26.9218 31.5048 26.7548C31.6718 26.5877 31.7656 26.3612 31.7656 26.125V11.875C31.7656 11.6388 31.6718 11.4123 31.5048 11.2452C31.3377 11.0782 31.1112 10.9844 30.875 10.9844Z" fill="black"/>
</svg>
