<svg width="38" height="38" viewBox="0 0 38 38" fill="none" xmlns="http://www.w3.org/2000/svg">
<path d="M36.4518 17.483L34.3737 12.2877C34.2206 11.9012 33.9546 11.5698 33.6104 11.3368C33.2661 11.1038 32.8597 10.9799 32.444 10.9814H27.0156V9.5C27.0156 9.26379 26.9218 9.03726 26.7548 8.87023C26.5877 8.70321 26.3612 8.60938 26.125 8.60938H3.5625C3.01135 8.60938 2.48277 8.82832 2.09304 9.21804C1.70332 9.60777 1.48438 10.1363 1.48438 10.6875V27.3125C1.48438 27.8637 1.70332 28.3922 2.09304 28.782C2.48277 29.1717 3.01135 29.3906 3.5625 29.3906H6.32344C6.52785 30.3973 7.07399 31.3023 7.86933 31.9524C8.66467 32.6025 9.66029 32.9576 10.6875 32.9576C11.7147 32.9576 12.7103 32.6025 13.5057 31.9524C14.301 31.3023 14.8472 30.3973 15.0516 29.3906H22.9484C23.1528 30.3973 23.699 31.3023 24.4943 31.9524C25.2897 32.6025 26.2853 32.9576 27.3125 32.9576C28.3397 32.9576 29.3353 32.6025 30.1307 31.9524C30.926 31.3023 31.4722 30.3973 31.6766 29.3906H34.4375C34.9887 29.3906 35.5172 29.1717 35.907 28.782C36.2967 28.3922 36.5156 27.8637 36.5156 27.3125V17.8125C36.5154 17.6996 36.4938 17.5878 36.4518 17.483ZM27.0156 12.7656H32.4455C32.5049 12.7656 32.563 12.7834 32.6123 12.8167C32.6615 12.8501 32.6996 12.8974 32.7216 12.9527L34.3098 16.9219H27.0156V12.7656ZM3.26562 10.6875C3.26562 10.6088 3.2969 10.5333 3.35258 10.4776C3.40825 10.4219 3.48376 10.3906 3.5625 10.3906H25.2344V20.4844H3.26562V10.6875ZM10.6875 31.1719C10.1591 31.1719 9.64247 31.0152 9.20309 30.7216C8.7637 30.428 8.42124 30.0107 8.21901 29.5225C8.01678 29.0343 7.96387 28.497 8.06696 27.9787C8.17006 27.4604 8.42453 26.9844 8.7982 26.6107C9.17187 26.237 9.64795 25.9826 10.1662 25.8795C10.6845 25.7764 11.2218 25.8293 11.71 26.0315C12.1982 26.2337 12.6155 26.5762 12.9091 27.0156C13.2027 27.455 13.3594 27.9716 13.3594 28.5C13.3594 29.2086 13.0779 29.8882 12.5768 30.3893C12.0757 30.8904 11.3961 31.1719 10.6875 31.1719ZM22.9484 27.6094H15.0516C14.8472 26.6027 14.301 25.6977 13.5057 25.0476C12.7103 24.3975 11.7147 24.0424 10.6875 24.0424C9.66029 24.0424 8.66467 24.3975 7.86933 25.0476C7.07399 25.6977 6.52785 26.6027 6.32344 27.6094H3.5625C3.48376 27.6094 3.40825 27.5781 3.35258 27.5224C3.2969 27.4667 3.26562 27.3912 3.26562 27.3125V22.2656H25.2344V24.5634C24.6525 24.8714 24.1458 25.3041 23.7506 25.8307C23.3555 26.3572 23.0815 26.9646 22.9484 27.6094ZM27.3125 31.1719C26.7841 31.1719 26.2675 31.0152 25.8281 30.7216C25.3887 30.428 25.0462 30.0107 24.844 29.5225C24.6418 29.0343 24.5889 28.497 24.692 27.9787C24.7951 27.4604 25.0495 26.9844 25.4232 26.6107C25.7969 26.237 26.2729 25.9826 26.7912 25.8795C27.3095 25.7764 27.8468 25.8293 28.335 26.0315C28.8232 26.2337 29.2405 26.5762 29.5341 27.0156C29.8277 27.455 29.9844 27.9716 29.9844 28.5C29.9844 29.2086 29.7029 29.8882 29.2018 30.3893C28.7007 30.8904 28.0211 31.1719 27.3125 31.1719ZM34.7344 27.3125C34.7344 27.3912 34.7031 27.4667 34.6474 27.5224C34.5917 27.5781 34.5162 27.6094 34.4375 27.6094H31.6766C31.47 26.6042 30.9231 25.701 30.1281 25.052C29.3331 24.4031 28.3387 24.0481 27.3125 24.0469C27.213 24.0469 27.1136 24.0469 27.0156 24.0573V18.7031H34.7344V27.3125Z" fill="black"/>
</svg>
