<svg width="38" height="38" viewBox="0 0 38 38" fill="none" xmlns="http://www.w3.org/2000/svg">

<path d="M37.0979 16.8329L27.0858 6.75255C24.4652 4.13847 20.9144 2.67118 17.2129 2.67285C13.5114 2.67452 9.96187 4.14501 7.34363 6.76146L5.29667 8.87372C5.13231 9.04359 5.04216 9.2718 5.04606 9.50814C5.04996 9.74448 5.14758 9.96959 5.31746 10.134C5.48733 10.2983 5.71554 10.3885 5.95188 10.3846C6.18822 10.3807 6.41333 10.283 6.57769 10.1132L8.6098 8.01575C9.50456 7.11938 10.5337 6.36816 11.6602 5.78919L18.9336 13.0626L4.46691 27.5204C4.27369 27.7134 4.12041 27.9426 4.01583 28.1949C3.91125 28.4472 3.85742 28.7176 3.85742 28.9907C3.85742 29.2638 3.91125 29.5342 4.01583 29.7865C4.12041 30.0388 4.27369 30.268 4.46691 30.461L7.53808 33.5322C7.73106 33.7252 7.96016 33.8782 8.2123 33.9827C8.46444 34.0871 8.73469 34.1409 9.00761 34.1409C9.28053 34.1409 9.55078 34.0871 9.80292 33.9827C10.0551 33.8782 10.2842 33.7252 10.4771 33.5322L24.9379 19.0684L29.8987 24.0292C30.0917 24.2222 30.3208 24.3753 30.5729 24.4797C30.8251 24.5842 31.0953 24.6379 31.3682 24.6379C31.6412 24.6379 31.9114 24.5842 32.1636 24.4797C32.4157 24.3753 32.6448 24.2222 32.8378 24.0292L37.095 19.7705C37.4847 19.3812 37.7039 18.8532 37.7044 18.3023C37.705 17.7515 37.4868 17.223 37.0979 16.8329ZM9.21839 32.2719C9.19082 32.2995 9.15808 32.3214 9.12204 32.3364C9.086 32.3513 9.04737 32.359 9.00835 32.359C8.96934 32.359 8.93071 32.3513 8.89467 32.3364C8.85863 32.3214 8.82589 32.2995 8.79832 32.2719L5.72714 29.2008C5.69954 29.1732 5.67764 29.1404 5.6627 29.1044C5.64776 29.0684 5.64007 29.0297 5.64007 28.9907C5.64007 28.9517 5.64776 28.9131 5.6627 28.877C5.67764 28.841 5.69954 28.8082 5.72714 28.7807L16.0317 18.4747L19.5214 21.9689L9.21839 32.2719ZM24.3085 17.1788L20.7817 20.7057L17.2904 17.2189L20.8173 13.692C20.9001 13.6093 20.9658 13.5111 21.0106 13.4029C21.0554 13.2948 21.0785 13.1789 21.0785 13.0619C21.0785 12.9448 21.0554 12.8289 21.0106 12.7208C20.9658 12.6127 20.9001 12.5145 20.8173 12.4318L13.44 5.047C15.5778 4.35038 17.8667 4.25899 20.0532 4.78297C22.2398 5.30695 24.2387 6.42584 25.8286 8.01575L32.6003 14.8335L27.9067 19.5182L25.5673 17.1788C25.4003 17.012 25.1739 16.9183 24.9379 16.9183C24.7019 16.9183 24.4755 17.012 24.3085 17.1788ZM35.8362 18.5147L31.5775 22.7749C31.55 22.8025 31.5172 22.8244 31.4812 22.8393C31.4451 22.8543 31.4065 22.862 31.3675 22.862C31.3285 22.862 31.2899 22.8543 31.2538 22.8393C31.2178 22.8244 31.185 22.8025 31.1575 22.7749L29.1669 20.7814L33.8516 16.0952L35.8362 18.0932C35.891 18.1487 35.9218 18.2237 35.9218 18.3017C35.9218 18.3798 35.891 18.4547 35.8362 18.5103V18.5147Z" fill="black"/>

</svg>
