<svg width="38" height="38" viewBox="0 0 38 38" fill="none" xmlns="http://www.w3.org/2000/svg">

<path d="M33.3848 10.3533C33.3308 10.2197 33.2452 10.1013 33.1353 10.0081C33.0255 9.91493 32.8947 9.84978 32.7541 9.81826C32.6136 9.78673 32.4675 9.78977 32.3284 9.8271C32.1892 9.86444 32.0613 9.93496 31.9554 10.0326L25.859 15.6584L22.963 15.0365L22.3411 12.1404L27.9669 6.04411C28.0645 5.93823 28.135 5.81024 28.1724 5.67112C28.2097 5.532 28.2128 5.38589 28.1812 5.24534C28.1497 5.10479 28.0846 4.97398 27.9914 4.86414C27.8982 4.75429 27.7798 4.66868 27.6462 4.61466C25.713 3.83095 23.5885 3.6473 21.5495 4.08762C19.5104 4.52793 17.651 5.57182 16.2134 7.08344C14.7758 8.59505 13.8264 10.5044 13.4889 12.563C13.1514 14.6216 13.4413 16.7341 14.321 18.6257L5.20842 26.4929C5.19209 26.5062 5.17725 26.5211 5.16092 26.5374C4.74718 26.9509 4.41894 27.4419 4.19495 27.9823C3.97096 28.5227 3.85561 29.1019 3.85547 29.6869C3.85519 30.8683 4.32424 32.0015 5.15943 32.8371C5.99463 33.6727 7.12755 34.1423 8.30897 34.1425C9.49039 34.1428 10.6235 33.6738 11.4591 32.8386C11.4755 32.8222 11.4903 32.8074 11.5037 32.7911L19.3708 23.6785C21.2624 24.5581 23.3749 24.8481 25.4335 24.5106C27.4921 24.173 29.4015 23.2237 30.9131 21.7861C32.4247 20.3484 33.4686 18.4891 33.9089 16.45C34.3492 14.4109 34.1656 12.2865 33.3819 10.3533H33.3848ZM23.7497 22.8591C22.2961 22.8585 20.8662 22.4898 19.5935 21.7874C19.4145 21.6883 19.2069 21.6538 19.0055 21.6898C18.8041 21.7257 18.6213 21.8299 18.4876 21.9848L10.1781 31.5991C9.67357 32.0825 8.99976 32.349 8.30109 32.3415C7.60242 32.334 6.93448 32.0531 6.44042 31.5591C5.94636 31.065 5.66549 30.3971 5.658 29.6984C5.65051 28.9997 5.91701 28.3259 6.40037 27.8214L16.0132 19.5178C16.1693 19.3836 16.2741 19.1996 16.3098 18.9969C16.3455 18.7942 16.31 18.5854 16.2091 18.406C15.403 16.9479 15.0374 15.2872 15.1564 13.6254C15.2755 11.9636 15.8741 10.372 16.8798 9.04373C17.8855 7.71543 19.255 6.70747 20.8222 6.1421C22.3895 5.57673 24.087 5.47823 25.7091 5.85856L20.7187 11.2706C20.622 11.3756 20.552 11.5023 20.5146 11.6399C20.4771 11.7776 20.4733 11.9223 20.5034 12.0618L21.3421 15.9731C21.3781 16.141 21.4618 16.2949 21.5832 16.4163C21.7046 16.5377 21.8585 16.6214 22.0264 16.6574L25.9377 17.4961C26.0772 17.5262 26.2219 17.5224 26.3595 17.4849C26.4972 17.4474 26.6239 17.3775 26.7289 17.2808L32.135 12.2904C32.4285 13.5535 32.4331 14.8665 32.1486 16.1317C31.8641 17.3969 31.2977 18.5815 30.4917 19.5974C29.6858 20.6133 28.6609 21.4342 27.4936 21.9989C26.3262 22.5637 25.0465 22.8577 23.7497 22.8591Z" fill="black"/>

</svg>
