<svg width="38" height="38" viewBox="0 0 38 38" fill="none" xmlns="http://www.w3.org/2000/svg">

<path d="M18.9996 12.1719C17.6492 12.1719 16.329 12.5724 15.2061 13.3227C14.0833 14.0729 13.2081 15.1394 12.6913 16.387C12.1745 17.6347 12.0393 19.0076 12.3027 20.3321C12.5662 21.6567 13.2165 22.8733 14.1714 23.8283C15.1264 24.7832 16.343 25.4335 17.6675 25.697C18.9921 25.9604 20.365 25.8252 21.6126 25.3084C22.8603 24.7916 23.9267 23.9164 24.677 22.7935C25.4273 21.6707 25.8278 20.3505 25.8278 19C25.8254 17.1898 25.1053 15.4544 23.8253 14.1744C22.5452 12.8944 20.8098 12.1743 18.9996 12.1719ZM18.9996 24.0469C18.0015 24.0469 17.0257 23.7509 16.1957 23.1964C15.3658 22.6418 14.7189 21.8536 14.3369 20.9314C13.9549 20.0092 13.855 18.9944 14.0497 18.0154C14.2445 17.0364 14.7251 16.1372 15.431 15.4314C16.1368 14.7255 17.036 14.2449 18.015 14.0501C18.994 13.8554 20.0088 13.9554 20.931 14.3373C21.8532 14.7193 22.6414 15.3662 23.196 16.1961C23.7505 17.0261 24.0465 18.0019 24.0465 19C24.0465 20.3386 23.5148 21.6222 22.5683 22.5687C21.6218 23.5152 20.3382 24.0469 18.9996 24.0469ZM31.7653 19.4216C31.7742 19.1411 31.7742 18.859 31.7653 18.5785L34.0408 15.7344C34.1278 15.6255 34.188 15.4978 34.2166 15.3614C34.2452 15.225 34.2415 15.0838 34.2056 14.9492C33.8496 13.6074 33.3164 12.319 32.6203 11.118C32.5511 10.9961 32.4542 10.8923 32.3373 10.8149C32.2205 10.7375 32.0871 10.6888 31.9478 10.6727L28.3185 10.2704C28.1276 10.0656 27.9296 9.86767 27.7248 9.67668L27.321 6.0459C27.305 5.90669 27.2562 5.77324 27.1789 5.6564C27.1015 5.53956 26.9976 5.44262 26.8757 5.37348C25.6762 4.67932 24.3899 4.14724 23.0505 3.79114C22.9155 3.75586 22.7741 3.7528 22.6377 3.78219C22.5013 3.81159 22.3737 3.87261 22.2653 3.96036L19.4153 6.24184C19.1347 6.23293 18.8527 6.23293 18.5721 6.24184L15.734 3.95887C15.6251 3.87189 15.4974 3.81167 15.361 3.78306C15.2246 3.75444 15.0834 3.75822 14.9488 3.79411C13.607 4.15013 12.3186 4.68326 11.1176 5.37942C10.9957 5.44856 10.8919 5.54549 10.8145 5.66233C10.7371 5.77918 10.6884 5.91263 10.6723 6.05184L10.276 9.68114C10.0711 9.87312 9.87321 10.071 9.68222 10.2749L6.04995 10.6875C5.91074 10.7036 5.77729 10.7523 5.66045 10.8297C5.54361 10.9071 5.44667 11.011 5.37753 11.1329C4.68337 12.3324 4.15129 13.6187 3.79519 14.9581C3.76077 15.0914 3.75773 15.2309 3.78632 15.3656C3.81491 15.5003 3.87434 15.6266 3.95995 15.7344L6.24144 18.5844C6.23253 18.865 6.23253 19.147 6.24144 19.4275L3.95847 22.2731C3.87149 22.382 3.81127 22.5097 3.78265 22.6461C3.75404 22.7825 3.75782 22.9237 3.7937 23.0583C4.15035 24.3975 4.68346 25.6834 5.37902 26.8821C5.44816 27.004 5.54509 27.1078 5.66193 27.1852C5.77877 27.2626 5.91222 27.3113 6.05144 27.3274L9.68073 27.7297C9.87271 27.9345 10.0706 28.1324 10.2745 28.3234L10.6871 31.9497C10.7032 32.0889 10.7519 32.2224 10.8293 32.3392C10.9067 32.4561 11.0106 32.553 11.1325 32.6222C12.332 33.3163 13.6183 33.8484 14.9577 34.2045C15.0923 34.2404 15.2335 34.2442 15.3699 34.2155C15.5063 34.1869 15.634 34.1267 15.7429 34.0397L18.5781 31.7657C18.8586 31.7746 19.1407 31.7746 19.4212 31.7657L22.2727 34.0486C22.4308 34.1748 22.6271 34.2434 22.8293 34.2431C22.9065 34.2428 22.9833 34.2328 23.0579 34.2134C24.3971 33.8568 25.683 33.3236 26.8817 32.6281C27.0036 32.5589 27.1074 32.462 27.1848 32.3452C27.2622 32.2283 27.3109 32.0949 27.327 31.9557L27.7292 28.3264C27.9341 28.1354 28.132 27.9375 28.323 27.7326L31.9538 27.3289C32.093 27.3128 32.2264 27.2641 32.3433 27.1867C32.4601 27.1093 32.5571 27.0055 32.6262 26.8836C33.3206 25.6841 33.8527 24.3978 34.2085 23.0583C34.2444 22.9237 34.2482 22.7825 34.2196 22.6461C34.191 22.5097 34.1308 22.382 34.0438 22.2731L31.7653 19.4216ZM31.3051 25.6011L27.796 25.9914C27.5768 26.0167 27.3747 26.1225 27.229 26.2883C26.9356 26.6188 26.6229 26.9316 26.2924 27.225C26.1266 27.3707 26.0208 27.5727 25.9955 27.792L25.6051 31.2996C24.7835 31.7377 23.9203 32.0927 23.0282 32.3594L20.2717 30.1536C20.1137 30.0275 19.9174 29.9589 19.7151 29.9592H19.6617C19.2207 29.9844 18.7786 29.9844 18.3376 29.9592C18.1174 29.9457 17.9 30.0145 17.7275 30.1522L14.9725 32.3594C14.0813 32.0913 13.219 31.7347 12.3986 31.2951L12.0082 27.789C11.983 27.5698 11.8772 27.3677 11.7114 27.222C11.3809 26.9286 11.0681 26.6158 10.7747 26.2854C10.629 26.1196 10.427 26.0138 10.2077 25.9885L6.70011 25.5981C6.26244 24.7789 5.90741 23.9182 5.64026 23.0286L7.84605 20.2722C7.98372 20.0997 8.05249 19.8823 8.03901 19.6621C8.01378 19.2211 8.01378 18.779 8.03901 18.338C8.05249 18.1178 7.98372 17.9004 7.84605 17.7279L5.64026 14.9729C5.90842 14.0817 6.26495 13.2194 6.70456 12.399L10.2107 12.0086C10.4299 11.9834 10.632 11.8776 10.7777 11.7118C11.0711 11.3813 11.3838 11.0685 11.7143 10.7751C11.8801 10.6294 11.9859 10.4274 12.0112 10.2081L12.4016 6.70051C13.2208 6.26284 14.0815 5.90781 14.971 5.64067L17.7275 7.84645C17.9 7.98413 18.1174 8.05289 18.3376 8.03942C18.7786 8.01418 19.2207 8.01418 19.6617 8.03942C19.8819 8.05289 20.0993 7.98413 20.2717 7.84645L23.0268 5.64067C23.918 5.90882 24.7803 6.26536 25.6007 6.70496L25.991 10.214C26.0163 10.4333 26.1221 10.6354 26.2879 10.7811C26.6184 11.0744 26.9312 11.3872 27.2246 11.7177C27.3703 11.8835 27.5723 11.9893 27.7916 12.0146L31.2992 12.405C31.7367 13.2232 32.0917 14.0829 32.359 14.9714L30.1532 17.7279C30.0156 17.9004 29.9468 18.1178 29.9603 18.338C29.9855 18.779 29.9855 19.2211 29.9603 19.6621C29.9468 19.8823 30.0156 20.0997 30.1532 20.2722L32.359 23.0272C32.0918 23.9183 31.7363 24.7806 31.2977 25.6011H31.3051Z" fill="black"/>

</svg>
