<svg width="38" height="38" viewBox="0 0 38 38" fill="none" xmlns="http://www.w3.org/2000/svg">

<path d="M30.875 20.4844H7.125C6.57385 20.4844 6.04527 20.7033 5.65554 21.093C5.26582 21.4828 5.04688 22.0113 5.04688 22.5625V29.6875C5.04688 30.2387 5.26582 30.7672 5.65554 31.157C6.04527 31.5467 6.57385 31.7656 7.125 31.7656H30.875C31.4262 31.7656 31.9547 31.5467 32.3445 31.157C32.7342 30.7672 32.9531 30.2387 32.9531 29.6875V22.5625C32.9531 22.0113 32.7342 21.4828 32.3445 21.093C31.9547 20.7033 31.4262 20.4844 30.875 20.4844ZM31.1719 29.6875C31.1719 29.7662 31.1406 29.8417 31.0849 29.8974C31.0292 29.9531 30.9537 29.9844 30.875 29.9844H7.125C7.04626 29.9844 6.97075 29.9531 6.91508 29.8974C6.8594 29.8417 6.82812 29.7662 6.82812 29.6875V22.5625C6.82812 22.4838 6.8594 22.4083 6.91508 22.3526C6.97075 22.2969 7.04626 22.2656 7.125 22.2656H30.875C30.9537 22.2656 31.0292 22.2969 31.0849 22.3526C31.1406 22.4083 31.1719 22.4838 31.1719 22.5625V29.6875ZM30.875 6.23438H7.125C6.57385 6.23438 6.04527 6.45332 5.65554 6.84304C5.26582 7.23277 5.04688 7.76135 5.04688 8.3125V15.4375C5.04687 15.7104 5.10063 15.9806 5.20506 16.2328C5.3095 16.4849 5.46257 16.714 5.65554 16.907C5.84852 17.0999 6.07761 17.253 6.32974 17.3574C6.58187 17.4619 6.8521 17.5156 7.125 17.5156H30.875C31.1479 17.5156 31.4181 17.4619 31.6703 17.3574C31.9224 17.253 32.1515 17.0999 32.3445 16.907C32.5374 16.714 32.6905 16.4849 32.7949 16.2328C32.8994 15.9806 32.9531 15.7104 32.9531 15.4375V8.3125C32.9531 7.76135 32.7342 7.23277 32.3445 6.84304C31.9547 6.45332 31.4262 6.23438 30.875 6.23438ZM31.1719 15.4375C31.1719 15.5162 31.1406 15.5917 31.0849 15.6474C31.0292 15.7031 30.9537 15.7344 30.875 15.7344H7.125C7.04626 15.7344 6.97075 15.7031 6.91508 15.6474C6.8594 15.5917 6.82812 15.5162 6.82812 15.4375V8.3125C6.82812 8.23376 6.8594 8.15825 6.91508 8.10258C6.97075 8.0469 7.04626 8.01562 7.125 8.01562H30.875C30.9537 8.01562 31.0292 8.0469 31.0849 8.10258C31.1406 8.15825 31.1719 8.23376 31.1719 8.3125V15.4375ZM28.2031 11.875C28.2031 12.1686 28.1161 12.4556 27.953 12.6997C27.7899 12.9438 27.558 13.134 27.2868 13.2464C27.0156 13.3587 26.7171 13.3881 26.4292 13.3309C26.1412 13.2736 25.8767 13.1322 25.6691 12.9246C25.4615 12.717 25.3202 12.4525 25.2629 12.1646C25.2056 11.8766 25.235 11.5782 25.3474 11.307C25.4597 11.0357 25.65 10.8039 25.8941 10.6408C26.1382 10.4777 26.4252 10.3906 26.7188 10.3906C27.1124 10.3906 27.49 10.547 27.7684 10.8254C28.0467 11.1038 28.2031 11.4813 28.2031 11.875ZM28.2031 26.125C28.2031 26.4186 28.1161 26.7056 27.953 26.9497C27.7899 27.1938 27.558 27.384 27.2868 27.4964C27.0156 27.6087 26.7171 27.6381 26.4292 27.5809C26.1412 27.5236 25.8767 27.3822 25.6691 27.1746C25.4615 26.967 25.3202 26.7025 25.2629 26.4146C25.2056 26.1266 25.235 25.8282 25.3474 25.557C25.4597 25.2857 25.65 25.0539 25.8941 24.8908C26.1382 24.7277 26.4252 24.6406 26.7188 24.6406C27.1124 24.6406 27.49 24.797 27.7684 25.0754C28.0467 25.3538 28.2031 25.7313 28.2031 26.125Z" fill="black"/>

</svg>
