<svg width="16" height="17" viewBox="0 0 16 17" fill="none" xmlns="http://www.w3.org/2000/svg">
<path d="M7.55317 2.27629L8.05317 1.27629C8.11251 1.15769 8.21653 1.06752 8.34236 1.02562C8.46818 0.983714 8.6055 0.993511 8.7241 1.05285C8.84271 1.1122 8.93288 1.21622 8.97478 1.34205C9.01668 1.46787 9.00688 1.60519 8.94754 1.72379L8.44754 2.72379C8.41816 2.78252 8.37749 2.83488 8.32788 2.87789C8.27826 2.9209 8.22065 2.95372 8.15835 2.97447C8.09605 2.99521 8.03027 3.00349 7.96477 2.99881C7.89927 2.99414 7.83533 2.97661 7.7766 2.94723C7.71788 2.91785 7.66551 2.87718 7.6225 2.82756C7.57949 2.77794 7.54668 2.72034 7.52593 2.65804C7.50518 2.59573 7.49691 2.52995 7.50158 2.46445C7.50625 2.39895 7.52378 2.33502 7.55317 2.27629ZM1.00004 7.00004H1.50004C1.63265 7.00004 1.75983 6.94736 1.85359 6.85359C1.94736 6.75983 2.00004 6.63265 2.00004 6.50004C2.00004 6.36743 1.94736 6.24026 1.85359 6.14649C1.75983 6.05272 1.63265 6.00004 1.50004 6.00004H1.00004C0.867433 6.00004 0.740256 6.05272 0.646488 6.14649C0.55272 6.24026 0.500041 6.36743 0.500041 6.50004C0.500041 6.63265 0.55272 6.75983 0.646488 6.85359C0.740256 6.94736 0.867433 7.00004 1.00004 7.00004ZM6.00004 2.50004C6.13265 2.50004 6.25983 2.44736 6.35359 2.35359C6.44736 2.25983 6.50004 2.13265 6.50004 2.00004V1.50004C6.50004 1.36743 6.44736 1.24026 6.35359 1.14649C6.25983 1.05272 6.13265 1.00004 6.00004 1.00004C5.86743 1.00004 5.74026 1.05272 5.64649 1.14649C5.55272 1.24026 5.50004 1.36743 5.50004 1.50004V2.00004C5.50004 2.13265 5.55272 2.25983 5.64649 2.35359C5.74026 2.44736 5.86743 2.50004 6.00004 2.50004ZM1.77629 8.05317L0.776291 8.55317C0.65769 8.61251 0.567519 8.71653 0.525617 8.84236C0.483714 8.96818 0.493511 9.1055 0.552854 9.2241C0.612196 9.34271 0.716222 9.43288 0.842047 9.47478C0.967872 9.51668 1.10519 9.50688 1.22379 9.44754L2.22379 8.94754C2.28252 8.91816 2.33488 8.87749 2.37789 8.82788C2.4209 8.77826 2.45372 8.72065 2.47447 8.65835C2.49521 8.59605 2.50349 8.53027 2.49881 8.46477C2.49414 8.39927 2.47661 8.33533 2.44723 8.2766C2.41785 8.21788 2.37718 8.16551 2.32756 8.1225C2.27794 8.07949 2.22034 8.04668 2.15804 8.02593C2.09573 8.00518 2.02995 7.99691 1.96445 8.00158C1.89895 8.00625 1.83502 8.02378 1.77629 8.05317ZM10.2544 9.04692L13.4007 7.67942C13.585 7.59768 13.7403 7.46213 13.8462 7.29056C13.9521 7.11899 14.0037 6.91941 13.9942 6.718C13.9847 6.51659 13.9145 6.32277 13.7928 6.16196C13.6712 6.00116 13.5038 5.88088 13.3125 5.81692L3.30754 2.55004C3.13247 2.49274 2.94495 2.48508 2.76578 2.52789C2.58662 2.5707 2.42282 2.66231 2.29257 2.79257C2.16231 2.92282 2.0707 3.08662 2.02789 3.26578C1.98508 3.44495 1.99274 3.63247 2.05004 3.80754L5.31692 13.8125C5.37848 14.0056 5.4979 14.1751 5.65899 14.2981C5.82007 14.4211 6.01506 14.4916 6.21754 14.5H6.26629C6.46051 14.5007 6.65063 14.4443 6.81299 14.3377C6.97536 14.2311 7.10279 14.0791 7.17942 13.9007L8.54692 10.7544L12 14.2069C12.0929 14.2998 12.2032 14.3735 12.3245 14.4237C12.4458 14.474 12.5759 14.4999 12.7072 14.4999C12.8386 14.4999 12.9686 14.474 13.09 14.4237C13.2113 14.3735 13.3216 14.2998 13.4144 14.2069L13.7069 13.9144C13.7998 13.8216 13.8735 13.7113 13.9237 13.59C13.974 13.4686 13.9999 13.3386 13.9999 13.2072C13.9999 13.0759 13.974 12.9458 13.9237 12.8245C13.8735 12.7032 13.7998 12.5929 13.7069 12.5L10.2544 9.04692Z" fill="white"/>
</svg>
