<svg width="11" height="16" viewBox="0 0 11 16" fill="none" xmlns="http://www.w3.org/2000/svg">
<path fill-rule="evenodd" clip-rule="evenodd" d="M5.98738 0.519527C5.66555 0.493491 5.33085 0.493491 5.00853 0.519527C3.19292 0.665918 1.63279 1.67591 0.728701 3.28965C-0.211533 4.96921 -0.247677 6.98429 0.653938 8.71789L4.64461 15.0314C4.82979 15.3251 5.14964 15.5 5.4987 15.5C5.84776 15.5 6.1676 15.3251 6.35328 15.0314L10.3435 8.71789C10.3492 8.70917 10.3543 8.69957 10.3593 8.69022C10.3608 8.68746 10.3623 8.68472 10.3638 8.68203C11.2446 6.98478 11.2089 4.96921 10.2687 3.28965C9.36361 1.67591 7.80349 0.665918 5.98738 0.519527ZM2.96045 5.74858C2.96045 4.36033 4.09923 3.23047 5.49844 3.23047C6.89765 3.23047 8.03643 4.36033 8.03643 5.74858C8.03643 7.13684 6.89765 8.2667 5.49844 8.2667C4.09923 8.2667 2.96045 7.13684 2.96045 5.74858Z" fill="#F4F4F4"/>
</svg>
