<svg width="35" height="22" viewBox="0 0 35 22" fill="none" xmlns="http://www.w3.org/2000/svg">
<path d="M33.6283 22H29.81C28.3635 22 27.9181 20.7896 25.3161 18.0082C23.056 15.6967 22.055 15.3898 21.4978 15.3898C20.7105 15.3898 20.4869 15.6239 20.4869 16.7631V20.4029C20.4869 21.3792 20.196 21.9653 17.7469 21.9653C13.6969 21.9653 9.20302 19.3816 6.05207 14.5678C1.30016 7.51368 0 2.23 0 1.13754C0 0.549697 0.221897 0 1.29194 0H5.11845C6.08658 0 6.45477 0.469929 6.83118 1.56239C8.72306 7.32466 11.874 12.3725 13.1742 12.3725C13.6541 12.3725 13.876 12.1384 13.876 10.8465V4.89525C13.7297 2.15023 12.3605 1.9144 12.3605 0.939859C12.3605 0.469929 12.7287 0 13.3188 0H19.3364C20.15 0 20.4491 0.46993 20.4491 1.48089V9.50958C20.4491 10.3766 20.8173 10.6835 21.0392 10.6835C21.5192 10.6835 21.9301 10.3766 22.8193 9.43675C25.5676 6.18539 27.5367 1.17222 27.5367 1.17222C27.7932 0.584378 28.2386 0.0346815 29.2067 0.0346815H33.0332C34.1805 0.0346815 34.4369 0.65721 34.1805 1.52424C33.7006 3.87215 29.0177 10.8448 29.0177 10.8448C28.615 11.5488 28.4605 11.8558 29.0177 12.6413C29.4286 13.2291 30.7649 14.4482 31.6542 15.5406C33.2896 17.5001 34.5471 19.144 34.8824 20.2816C35.2588 21.4104 34.7032 21.9983 33.6233 21.9983L33.6283 22Z" fill="white"/>
</svg>
