<svg width="31" height="24" viewBox="0 0 31 24" fill="none" xmlns="http://www.w3.org/2000/svg">
<path d="M15.879 0C16.7067 0.00450028 18.7776 0.0240014 20.9787 0.109507L21.76 0.142509C23.975 0.243015 26.1886 0.417026 27.2876 0.712544C28.7524 1.11157 29.9025 2.27264 30.2916 3.74573C30.9116 6.08588 30.9891 10.6492 30.9984 11.7547L31 11.9827V12.2438C30.9891 13.3493 30.9116 17.9141 30.2916 20.2528C29.8979 21.7304 28.7462 22.8929 27.2876 23.286C26.1886 23.5815 23.975 23.7555 21.76 23.856L20.9787 23.8905C18.7776 23.9745 16.7067 23.9955 15.879 23.9985L15.5147 24H15.1195C13.3679 23.9895 6.0422 23.913 3.71089 23.286C2.24761 22.8869 1.0959 21.7259 0.706835 20.2528C0.0868045 17.9126 0.00930046 13.3493 0 12.2438V11.7547C0.00930046 10.6492 0.0868045 6.08438 0.706835 3.74573C1.10056 2.26814 2.25226 1.10557 3.71244 0.714044C6.0422 0.0855051 13.3694 0.00900056 15.121 0H15.879ZM12.3991 6.75042V17.2511L21.6995 12.0007L12.3991 6.75042Z" fill="white"/>
</svg>
