<svg width="38" height="38" viewBox="0 0 38 38" fill="none" xmlns="http://www.w3.org/2000/svg">
<g opacity="0.4">
<path d="M19.0016 12.1714C17.6511 12.1714 16.331 12.5719 15.2081 13.3222C14.0852 14.0725 13.21 15.1389 12.6932 16.3865C12.1764 17.6342 12.0412 19.0071 12.3047 20.3317C12.5681 21.6562 13.2184 22.8728 14.1734 23.8278C15.1283 24.7827 16.345 25.433 17.6695 25.6965C18.994 25.9599 20.3669 25.8247 21.6146 25.3079C22.8623 24.7911 23.9287 23.9159 24.679 22.7931C25.4293 21.6702 25.8297 20.35 25.8297 18.9996C25.8274 17.1893 25.1072 15.454 23.8272 14.1739C22.5472 12.8939 20.8118 12.1738 19.0016 12.1714ZM19.0016 24.0464C18.0034 24.0464 17.0277 23.7504 16.1977 23.1959C15.3677 22.6413 14.7209 21.8531 14.3389 20.9309C13.9569 20.0087 13.857 18.994 14.0517 18.015C14.2464 17.036 14.7271 16.1367 15.4329 15.4309C16.1387 14.7251 17.038 14.2444 18.017 14.0497C18.996 13.8549 20.0108 13.9549 20.9329 14.3369C21.8551 14.7188 22.6434 15.3657 23.1979 16.1957C23.7525 17.0256 24.0485 18.0014 24.0485 18.9996C24.0485 20.3381 23.5167 21.6218 22.5703 22.5682C21.6238 23.5147 20.3401 24.0464 19.0016 24.0464ZM31.7672 19.4211C31.7761 19.1406 31.7761 18.8585 31.7672 18.578L34.0428 15.7339C34.1297 15.6251 34.19 15.4973 34.2186 15.3609C34.2472 15.2245 34.2434 15.0833 34.2075 14.9487C33.8515 13.6069 33.3184 12.3185 32.6222 11.1175C32.5531 10.9956 32.4561 10.8918 32.3393 10.8144C32.2225 10.737 32.089 10.6883 31.9498 10.6722L28.3205 10.2699C28.1295 10.0651 27.9316 9.86719 27.7267 9.6762L27.323 6.04541C27.3069 5.9062 27.2582 5.77275 27.1808 5.65591C27.1034 5.53907 26.9996 5.44214 26.8777 5.37299C25.6781 4.67884 24.3918 4.14675 23.0525 3.79065C22.9175 3.75538 22.7761 3.75231 22.6397 3.78171C22.5033 3.8111 22.3757 3.87213 22.2672 3.95987L19.4172 6.24135C19.1367 6.23245 18.8546 6.23245 18.5741 6.24135L15.736 3.95838C15.6271 3.8714 15.4993 3.81119 15.363 3.78257C15.2266 3.75395 15.0854 3.75774 14.9507 3.79362C13.609 4.14965 12.3206 4.68277 11.1196 5.37893C10.9977 5.44807 10.8938 5.54501 10.8164 5.66185C10.7391 5.77869 10.6903 5.91214 10.6742 6.05135L10.2779 9.68065C10.0731 9.87263 9.87516 10.0705 9.68417 10.2744L6.05191 10.6871C5.91269 10.7031 5.77924 10.7519 5.6624 10.8292C5.54556 10.9066 5.44863 11.0105 5.37948 11.1324C4.68533 12.3319 4.15324 13.6182 3.79714 14.9576C3.76272 15.0909 3.75968 15.2304 3.78827 15.3651C3.81686 15.4998 3.8763 15.6261 3.96191 15.7339L6.24339 18.5839C6.23448 18.8645 6.23448 19.1465 6.24339 19.4271L3.96042 22.2726C3.87344 22.3815 3.81322 22.5092 3.78461 22.6456C3.75599 22.782 3.75977 22.9232 3.79566 23.0578C4.15231 24.397 4.68541 25.6829 5.38097 26.8816C5.45011 27.0035 5.54704 27.1073 5.66388 27.1847C5.78073 27.2621 5.91418 27.3108 6.05339 27.3269L9.68269 27.7292C9.87467 27.934 10.0726 28.1319 10.2764 28.3229L10.6891 31.9492C10.7052 32.0885 10.7539 32.2219 10.8313 32.3387C10.9087 32.4556 11.0125 32.5525 11.1344 32.6217C12.334 33.3158 13.6202 33.8479 14.9596 34.204C15.0943 34.2399 15.2355 34.2437 15.3719 34.2151C15.5082 34.1864 15.636 34.1262 15.7449 34.0392L18.58 31.7652C18.8606 31.7741 19.1426 31.7741 19.4232 31.7652L22.2746 34.0481C22.4327 34.1743 22.629 34.2429 22.8313 34.2426C22.9084 34.2423 22.9852 34.2324 23.0599 34.2129C24.3991 33.8563 25.6849 33.3232 26.8836 32.6276C27.0055 32.5585 27.1094 32.4615 27.1868 32.3447C27.2641 32.2278 27.3128 32.0944 27.3289 31.9552L27.7312 28.3259C27.936 28.1349 28.134 27.937 28.325 27.7321L31.9557 27.3284C32.0949 27.3123 32.2284 27.2636 32.3452 27.1862C32.4621 27.1088 32.559 27.005 32.6282 26.8831C33.3226 25.6836 33.8547 24.3973 34.2105 23.0578C34.2464 22.9232 34.2502 22.782 34.2215 22.6456C34.1929 22.5092 34.1327 22.3815 34.0457 22.2726L31.7672 19.4211ZM31.3071 25.6006L27.798 25.991C27.5787 26.0162 27.3767 26.122 27.231 26.2878C26.9376 26.6183 26.6248 26.9311 26.2943 27.2245C26.1285 27.3702 26.0227 27.5722 25.9975 27.7915L25.6071 31.2991C24.7855 31.7372 23.9223 32.0922 23.0302 32.3589L20.2737 30.1531C20.1156 30.027 19.9193 29.9584 19.7171 29.9587H19.6636C19.2226 29.9839 18.7806 29.9839 18.3396 29.9587C18.1193 29.9452 17.9019 30.014 17.7295 30.1517L14.9745 32.3589C14.0832 32.0908 13.221 31.7342 12.4006 31.2946L12.0102 27.7885C11.9849 27.5693 11.8791 27.3672 11.7133 27.2215C11.3828 26.9281 11.0701 26.6154 10.7767 26.2849C10.631 26.1191 10.4289 26.0133 10.2096 25.988L6.70206 25.5976C6.26439 24.7784 5.90936 23.9177 5.64222 23.0281L7.848 20.2717C7.98568 20.0992 8.05444 19.8818 8.04097 19.6616C8.01573 19.2206 8.01573 18.7785 8.04097 18.3375C8.05444 18.1173 7.98568 17.8999 7.848 17.7274L5.64222 14.9724C5.91037 14.0812 6.26691 13.2189 6.70651 12.3985L10.2126 12.0081C10.4319 11.9829 10.6339 11.8771 10.7796 11.7113C11.073 11.3808 11.3858 11.068 11.7163 10.7746C11.8821 10.6289 11.9879 10.4269 12.0132 10.2076L12.4035 6.70002C13.2227 6.26235 14.0835 5.90732 14.973 5.64018L17.7295 7.84596C17.9019 7.98364 18.1193 8.0524 18.3396 8.03893C18.7806 8.0137 19.2226 8.0137 19.6636 8.03893C19.8839 8.0524 20.1013 7.98364 20.2737 7.84596L23.0287 5.64018C23.92 5.90833 24.7822 6.26487 25.6026 6.70448L25.993 10.2135C26.0183 10.4328 26.1241 10.6349 26.2899 10.7806C26.6204 11.074 26.9331 11.3867 27.2265 11.7172C27.3722 11.883 27.5743 11.9888 27.7935 12.0141L31.3011 12.4045C31.7386 13.2227 32.0936 14.0824 32.361 14.971L30.1552 17.7274C30.0175 17.8999 29.9487 18.1173 29.9622 18.3375C29.9875 18.7785 29.9875 19.2206 29.9622 19.6616C29.9487 19.8818 30.0175 20.0992 30.1552 20.2717L32.361 23.0267C32.0938 23.9178 31.7382 24.7801 31.2996 25.6006H31.3071Z" fill="black"/>
</g>
</svg>
