<svg width="38" height="38" viewBox="0 0 38 38" fill="none" xmlns="http://www.w3.org/2000/svg">
<g opacity="0.34">
<path d="M23.75 2.67188C21.9072 2.67304 20.0913 3.11377 18.453 3.95748C16.8147 4.80119 15.4013 6.02353 14.3301 7.52303C13.2589 9.02252 12.5609 10.7559 12.294 12.5793C12.027 14.4026 12.1989 16.2633 12.7953 18.007L4.12063 26.6831C3.95355 26.85 3.85958 27.0764 3.85938 27.3125V33.25C3.85938 33.4862 3.95321 33.7127 4.12023 33.8798C4.28726 34.0468 4.51379 34.1406 4.75 34.1406H10.6875C10.9237 34.1406 11.1502 34.0468 11.3173 33.8798C11.4843 33.7127 11.5781 33.4862 11.5781 33.25V30.5781H14.25C14.4862 30.5781 14.7127 30.4843 14.8798 30.3173C15.0468 30.1502 15.1406 29.9237 15.1406 29.6875V27.0156H17.8125C18.0486 27.0154 18.275 26.9214 18.4419 26.7544L19.993 25.2047C21.5834 25.7488 23.2731 25.9401 24.9448 25.7654C26.6165 25.5906 28.2302 25.054 29.6736 24.1928C31.117 23.3315 32.3556 22.1663 33.3033 20.7782C34.251 19.39 34.8851 17.8121 35.1615 16.1542C35.438 14.4962 35.3501 12.798 34.9041 11.1774C34.458 9.55685 33.6645 8.05283 32.5785 6.76988C31.4926 5.48692 30.1404 4.45577 28.6158 3.7481C27.0912 3.04042 25.4308 2.67317 23.75 2.67188ZM23.75 24.0469C22.5081 24.0491 21.2772 23.8138 20.1237 23.3537C19.9596 23.2822 19.7778 23.2619 19.602 23.2952C19.4262 23.3286 19.2645 23.4141 19.138 23.5407L17.4429 25.2344H14.25C14.0138 25.2344 13.7873 25.3282 13.6202 25.4952C13.4532 25.6623 13.3594 25.8888 13.3594 26.125V28.7969H10.6875C10.4513 28.7969 10.2248 28.8907 10.0577 29.0577C9.89071 29.2248 9.79688 29.4513 9.79688 29.6875V32.3594H5.64062V27.6821L14.4593 18.862C14.5859 18.7355 14.6714 18.5738 14.7048 18.398C14.7381 18.2222 14.7178 18.0404 14.6463 17.8763C13.8705 15.9292 13.7396 13.7846 14.2728 11.7576C14.8061 9.73053 15.9754 7.92796 17.6089 6.61467C19.2424 5.30138 21.2541 4.54661 23.3484 4.46125C25.4426 4.3759 27.5091 4.96445 29.2441 6.14045C30.9791 7.31645 32.2912 9.01789 32.9876 10.9948C33.684 12.9717 33.7281 15.1199 33.1133 17.1237C32.4985 19.1275 31.2572 20.8813 29.5719 22.1274C27.8866 23.3735 25.846 24.0463 23.75 24.0469ZM28.2031 11.2812C28.2031 11.5748 28.1161 11.8618 27.953 12.1059C27.7899 12.35 27.558 12.5403 27.2868 12.6526C27.0156 12.765 26.7171 12.7944 26.4292 12.7371C26.1412 12.6798 25.8767 12.5385 25.6691 12.3309C25.4615 12.1233 25.3202 11.8588 25.2629 11.5708C25.2056 11.2829 25.235 10.9844 25.3474 10.7132C25.4597 10.442 25.65 10.2101 25.8941 10.047C26.1382 9.88393 26.4252 9.79688 26.7188 9.79688C27.1124 9.79688 27.49 9.95326 27.7684 10.2316C28.0467 10.51 28.2031 10.8876 28.2031 11.2812Z" fill="black"/>
</g>
</svg>
