<svg width="38" height="38" viewBox="0 0 38 38" fill="none" xmlns="http://www.w3.org/2000/svg">
<g opacity="0.4">
<path d="M31.7656 14.2496C31.7672 12.0923 31.2221 9.96981 30.1811 8.08031C29.1401 6.19082 27.6373 4.59595 25.8129 3.44463C23.9886 2.29331 21.9022 1.6231 19.7487 1.49658C17.5951 1.37007 15.4446 1.79137 13.498 2.72116C11.5514 3.65095 9.87215 5.05888 8.6171 6.81349C7.36205 8.5681 6.57213 10.6122 6.3211 12.7548C6.07007 14.8974 6.36612 17.0687 7.1816 19.0659C7.99708 21.063 9.3054 22.821 10.9844 24.1756V35.6246C10.9845 35.7763 11.0235 35.9255 11.0975 36.058C11.1716 36.1905 11.2782 36.3019 11.4074 36.3816C11.5476 36.4691 11.7097 36.5154 11.875 36.5152C12.0131 36.5153 12.1492 36.4832 12.2728 36.4217L19 33.0581L25.7287 36.4217C25.8644 36.4891 26.0151 36.5208 26.1666 36.5137C26.318 36.5067 26.4651 36.4611 26.594 36.3812C26.7228 36.3014 26.8292 36.19 26.903 36.0576C26.9768 35.9252 27.0155 35.7761 27.0156 35.6246V24.1756C28.4985 22.981 29.695 21.4693 30.5169 19.7516C31.3389 18.0339 31.7656 16.1538 31.7656 14.2496ZM8.01563 14.2496C8.01563 12.0771 8.65985 9.95334 9.86683 8.14696C11.0738 6.34059 12.7893 4.9327 14.7965 4.10132C16.8036 3.26994 19.0122 3.05241 21.1429 3.47624C23.2737 3.90008 25.2309 4.94624 26.7671 6.48243C28.3033 8.01862 29.3495 9.97585 29.7733 12.1066C30.1971 14.2374 29.9796 16.446 29.1482 18.4531C28.3169 20.4602 26.909 22.1758 25.1026 23.3827C23.2962 24.5897 21.1725 25.2339 19 25.2339C16.0878 25.2304 13.296 24.072 11.2368 22.0128C9.17757 19.9536 8.01916 17.1617 8.01563 14.2496ZM25.2344 34.1832L19.3963 31.2649C19.2728 31.2033 19.1366 31.1712 18.9985 31.1712C18.8604 31.1712 18.7242 31.2033 18.6007 31.2649L12.7656 34.1832V25.3824C14.6694 26.4519 16.8163 27.0137 19 27.0137C21.1837 27.0137 23.3306 26.4519 25.2344 25.3824V34.1832ZM19 22.2652C20.5853 22.2652 22.1351 21.7951 23.4532 20.9143C24.7714 20.0335 25.7988 18.7817 26.4055 17.317C27.0122 15.8523 27.1709 14.2407 26.8616 12.6858C26.5523 11.1309 25.7889 9.70266 24.6679 8.58165C23.5469 7.46065 22.1187 6.69723 20.5638 6.38795C19.0089 6.07866 17.3972 6.2374 15.9326 6.84408C14.4679 7.45077 13.216 8.47815 12.3353 9.79631C11.4545 11.1145 10.9844 12.6642 10.9844 14.2496C10.9867 16.3747 11.832 18.4121 13.3347 19.9149C14.8374 21.4176 16.8748 22.2628 19 22.2652ZM19 8.01518C20.233 8.01518 21.4384 8.38082 22.4636 9.06586C23.4889 9.75091 24.2879 10.7246 24.7598 11.8638C25.2317 13.0029 25.3551 14.2565 25.1146 15.4658C24.874 16.6752 24.2803 17.786 23.4084 18.6579C22.5365 19.5298 21.4256 20.1236 20.2163 20.3641C19.0069 20.6047 17.7534 20.4812 16.6142 20.0094C15.475 19.5375 14.5013 18.7384 13.8163 17.7132C13.1313 16.688 12.7656 15.4826 12.7656 14.2496C12.7656 12.5961 13.4225 11.0104 14.5916 9.84119C15.7608 8.67202 17.3465 8.01518 19 8.01518Z" fill="black"/>
</g>
</svg>
