<svg width="38" height="38" viewBox="0 0 38 38" fill="none" xmlns="http://www.w3.org/2000/svg">
<g opacity="0.4">
<path d="M36.1594 22.0867C36.0658 22.1569 35.9593 22.2079 35.846 22.237C35.7327 22.266 35.6148 22.2724 35.499 22.2559C35.3833 22.2393 35.2719 22.2002 35.1712 22.1406C35.0706 22.081 34.9827 22.0021 34.9125 21.9086C34.1693 20.9095 33.2018 20.0988 32.088 19.5419C30.9742 18.985 29.7452 18.6974 28.5 18.7023C28.2638 18.7023 28.0373 18.6085 27.8702 18.4415C27.7032 18.2744 27.6094 18.0479 27.6094 17.8117C27.6094 17.5755 27.7032 17.349 27.8702 17.1819C28.0373 17.0149 28.2638 16.9211 28.5 16.9211C29.2218 16.9209 29.9291 16.7184 30.5415 16.3364C31.154 15.9544 31.647 15.4083 31.9647 14.7602C32.2824 14.1121 32.4119 13.3878 32.3386 12.6698C32.2653 11.9517 31.9921 11.2686 31.55 10.698C31.1079 10.1274 30.5147 9.69224 29.8377 9.4419C29.1607 9.19155 28.4271 9.13607 27.7202 9.28177C27.0132 9.42746 26.3613 9.76848 25.8385 10.2661C25.3156 10.7637 24.9428 11.398 24.7623 12.0969C24.7033 12.3256 24.5558 12.5215 24.3523 12.6415C24.1488 12.7615 23.906 12.7957 23.6773 12.7366C23.4485 12.6776 23.2526 12.5301 23.1327 12.3266C23.0127 12.1231 22.9784 11.8803 23.0375 11.6515C23.2614 10.7809 23.6901 9.97629 24.288 9.30491C24.8859 8.63353 25.6356 8.11477 26.4746 7.79189C27.3136 7.46901 28.2177 7.35136 29.1114 7.44873C30.0051 7.54611 30.8626 7.85569 31.6124 8.35168C32.3622 8.84768 32.9826 9.5157 33.4219 10.3001C33.8612 11.0845 34.1066 11.9625 34.1377 12.861C34.1688 13.7594 33.9847 14.6523 33.6007 15.4652C33.2168 16.2781 32.6441 16.9875 31.9304 17.5341C33.6866 18.1895 35.2168 19.3372 36.3375 20.8398C36.4077 20.9334 36.4587 21.0399 36.4878 21.1532C36.5168 21.2665 36.5232 21.3844 36.5067 21.5002C36.4901 21.6159 36.451 21.7273 36.3914 21.828C36.3318 21.9286 36.2529 22.0165 36.1594 22.0867ZM28.0829 31.6164C28.1415 31.7177 28.1796 31.8295 28.195 31.9454C28.2103 32.0614 28.2027 32.1793 28.1725 32.2923C28.1423 32.4054 28.0902 32.5113 28.019 32.6042C27.9479 32.6971 27.8591 32.775 27.7578 32.8336C27.6228 32.9127 27.469 32.9542 27.3125 32.9538C27.1561 32.9539 27.0024 32.9128 26.8669 32.8346C26.7314 32.7565 26.6188 32.644 26.5406 32.5085C25.7665 31.1969 24.6636 30.1098 23.341 29.3546C22.0183 28.5994 20.5216 28.2022 18.9985 28.2022C17.4754 28.2022 15.9787 28.5994 14.6561 29.3546C13.3334 30.1098 12.2306 31.1969 11.4564 32.5085C11.4007 32.6149 11.3241 32.709 11.2311 32.7851C11.1381 32.8611 11.0307 32.9176 10.9154 32.951C10.8 32.9845 10.6791 32.9943 10.5598 32.9798C10.4406 32.9653 10.3255 32.9269 10.2215 32.8667C10.1175 32.8066 10.0268 32.7261 9.95471 32.63C9.88264 32.5339 9.83076 32.4242 9.80219 32.3076C9.77361 32.1909 9.76893 32.0697 9.78842 31.9511C9.80792 31.8326 9.85119 31.7192 9.91563 31.6179C11.1287 29.5336 13.0281 27.9354 15.2891 27.0965C14.054 26.2946 13.1113 25.1149 12.6015 23.7333C12.0917 22.3518 12.0422 20.8425 12.4604 19.4306C12.8786 18.0186 13.742 16.7797 14.9219 15.8986C16.1017 15.0175 17.5349 14.5415 19.0074 14.5415C20.48 14.5415 21.9131 15.0175 23.093 15.8986C24.2729 16.7797 25.1363 18.0186 25.5544 19.4306C25.9726 20.8425 25.9231 22.3518 25.4134 23.7333C24.9036 25.1149 23.9609 26.2946 22.7258 27.0965C24.9805 27.9382 26.8736 29.5356 28.0829 31.6164ZM19 26.4211C19.9982 26.4211 20.9739 26.1251 21.8039 25.5705C22.6338 25.016 23.2807 24.2278 23.6627 23.3056C24.0447 22.3834 24.1446 21.3686 23.9499 20.3896C23.7552 19.4106 23.2745 18.5113 22.5687 17.8055C21.8629 17.0997 20.9636 16.619 19.9846 16.4243C19.0056 16.2296 17.9908 16.3295 17.0686 16.7115C16.1464 17.0935 15.3582 17.7404 14.8037 18.5703C14.2491 19.4003 13.9531 20.376 13.9531 21.3742C13.9531 22.7127 14.4848 23.9964 15.4313 24.9429C16.3778 25.8894 17.6615 26.4211 19 26.4211ZM10.3906 17.8117C10.3906 17.5755 10.2968 17.349 10.1298 17.1819C9.96274 17.0149 9.73621 16.9211 9.5 16.9211C8.77828 16.9209 8.07109 16.7183 7.45873 16.3363C6.84637 15.9544 6.35337 15.4083 6.03573 14.7603C5.71809 14.1122 5.58853 13.3881 5.66176 12.6701C5.73499 11.9521 6.00808 11.269 6.45002 10.6985C6.89195 10.1279 7.48502 9.69264 8.16189 9.44218C8.83875 9.19172 9.57228 9.13607 10.2792 9.28155C10.9861 9.42704 11.638 9.76782 12.161 10.2652C12.6839 10.7626 13.0569 11.3966 13.2377 12.0954C13.2669 12.2086 13.3182 12.315 13.3885 12.4085C13.4589 12.5019 13.5469 12.5806 13.6477 12.64C13.7485 12.6994 13.8599 12.7384 13.9758 12.7547C14.0916 12.771 14.2095 12.7644 14.3227 12.7351C14.436 12.7059 14.5424 12.6546 14.6358 12.5843C14.7293 12.5139 14.8079 12.4259 14.8673 12.3251C14.9268 12.2243 14.9657 12.1129 14.9821 11.997C14.9984 11.8812 14.9917 11.7633 14.9625 11.6501C14.7386 10.7794 14.3099 9.97481 13.712 9.30343C13.1141 8.63204 12.3644 8.11329 11.5254 7.79041C10.6864 7.46753 9.78233 7.34987 8.88861 7.44725C7.99489 7.54462 7.13739 7.85421 6.38758 8.3502C5.63777 8.84619 5.01738 9.51422 4.57811 10.2986C4.13885 11.083 3.89343 11.961 3.86232 12.8595C3.8312 13.758 4.0153 14.6508 4.39926 15.4637C4.78321 16.2766 5.35591 16.986 6.06961 17.5326C4.31318 18.1884 2.78304 19.3367 1.6625 20.8398C1.59232 20.9334 1.54127 21.0399 1.51224 21.1532C1.48321 21.2665 1.47679 21.3844 1.49333 21.5002C1.50987 21.6159 1.54905 21.7273 1.60864 21.828C1.66823 21.9286 1.74706 22.0165 1.84063 22.0867C1.93419 22.1569 2.04066 22.2079 2.15396 22.237C2.26726 22.266 2.38517 22.2724 2.50095 22.2559C2.61674 22.2393 2.72813 22.2002 2.82877 22.1406C2.92941 22.081 3.01732 22.0021 3.0875 21.9086C3.83074 20.9095 4.7982 20.0988 5.91198 19.5419C7.02577 18.985 8.25476 18.6974 9.5 18.7023C9.73621 18.7023 9.96274 18.6085 10.1298 18.4415C10.2968 18.2744 10.3906 18.0479 10.3906 17.8117Z" fill="black"/>
</g>
</svg>
