<svg width="38" height="38" viewBox="0 0 38 38" fill="none" xmlns="http://www.w3.org/2000/svg">
<g opacity="0.4">
<path d="M34.5859 21.8551L28.4154 7.80694C28.3709 7.70566 28.308 7.61354 28.2298 7.5353C27.3947 6.70047 26.2623 6.23148 25.0815 6.23148C23.9007 6.23148 22.7682 6.70047 21.9331 7.5353C21.7664 7.7018 21.6725 7.92758 21.6719 8.16319V12.171H16.3281V8.16319C16.3282 8.04602 16.3052 7.92998 16.2603 7.82173C16.2155 7.71347 16.1498 7.61513 16.0669 7.53233C15.2318 6.6975 14.0993 6.22852 12.9185 6.22852C11.7377 6.22852 10.6052 6.6975 9.77014 7.53233C9.69196 7.61057 9.62904 7.70269 9.58459 7.80397L3.41405 21.8551C2.94583 22.7755 2.69249 23.7901 2.67308 24.8226C2.65367 25.8551 2.86871 26.8786 3.302 27.8159C3.7353 28.7533 4.37557 29.5802 5.17462 30.2343C5.97367 30.8885 6.91069 31.3529 7.91516 31.5926C8.91964 31.8323 9.96539 31.841 10.9737 31.6181C11.9821 31.3953 12.9267 30.9466 13.7366 30.3058C14.5464 29.6651 15.2004 28.849 15.6493 27.919C16.0982 26.989 16.3303 25.9693 16.3281 24.9366V13.9523H21.6719V24.9366C21.6697 25.9693 21.9018 26.989 22.3507 27.919C22.7996 28.849 23.4535 29.6651 24.2634 30.3058C25.0733 30.9466 26.0179 31.3953 27.0262 31.6181C28.0346 31.841 29.0803 31.8323 30.0848 31.5926C31.0893 31.3529 32.0263 30.8885 32.8254 30.2343C33.6244 29.5802 34.2647 28.7533 34.698 27.8159C35.1313 26.8786 35.3463 25.8551 35.3269 24.8226C35.3075 23.7901 35.0541 22.7755 34.5859 21.8551ZM9.49999 29.9835C8.50181 29.9835 7.52605 29.6875 6.69609 29.1329C5.86614 28.5784 5.21927 27.7902 4.83728 26.868C4.45529 25.9458 4.35535 24.931 4.55008 23.952C4.74482 22.973 5.22549 22.0738 5.93131 21.3679C6.63712 20.6621 7.53639 20.1815 8.51539 19.9867C9.49439 19.792 10.5091 19.8919 11.4313 20.2739C12.3535 20.6559 13.1418 21.3028 13.6963 22.1327C14.2509 22.9627 14.5469 23.9384 14.5469 24.9366C14.5469 26.2751 14.0151 27.5588 13.0687 28.5053C12.1222 29.4518 10.8385 29.9835 9.49999 29.9835ZM9.49999 18.1085C8.55159 18.1081 7.61364 18.3064 6.74647 18.6904L11.1417 8.68866C11.6062 8.27497 12.2005 8.03631 12.8221 8.01382C13.4437 7.99133 14.0537 8.18642 14.5469 8.56545V20.3351C13.9074 19.6325 13.128 19.0715 12.2589 18.6881C11.3897 18.3046 10.45 18.1072 9.49999 18.1085ZM23.4531 8.56694C23.9463 8.1879 24.5563 7.99282 25.1779 8.01531C25.7995 8.0378 26.3938 8.27646 26.8583 8.69014L31.2535 18.6904C29.9453 18.1107 28.4878 17.9576 27.0877 18.2528C25.6875 18.548 24.4159 19.2765 23.4531 20.3351V8.56694ZM28.5 29.9835C27.5018 29.9835 26.526 29.6875 25.6961 29.1329C24.8661 28.5784 24.2193 27.7902 23.8373 26.868C23.4553 25.9458 23.3553 24.931 23.5501 23.952C23.7448 22.973 24.2255 22.0738 24.9313 21.3679C25.6371 20.6621 26.5364 20.1815 27.5154 19.9867C28.4944 19.792 29.5091 19.8919 30.4313 20.2739C31.3535 20.6559 32.1418 21.3028 32.6963 22.1327C33.2509 22.9627 33.5469 23.9384 33.5469 24.9366C33.5469 26.2751 33.0151 27.5588 32.0687 28.5053C31.1222 29.4518 29.8385 29.9835 28.5 29.9835Z" fill="black"/>
</g>
</svg>
