<svg width="38" height="38" viewBox="0 0 38 38" fill="none" xmlns="http://www.w3.org/2000/svg">
<g opacity="0.4">
<path d="M31.5044 10.0581L25.5669 4.12063C25.4 3.95355 25.1736 3.85958 24.9375 3.85938H13.0625C12.5113 3.85938 11.9828 4.07832 11.593 4.46804C11.2033 4.85777 10.9844 5.38635 10.9844 5.9375V8.60938H8.3125C7.76135 8.60938 7.23277 8.82832 6.84304 9.21804C6.45332 9.60777 6.23438 10.1363 6.23438 10.6875V32.0625C6.23438 32.6137 6.45332 33.1422 6.84304 33.532C7.23277 33.9217 7.76135 34.1406 8.3125 34.1406H24.9375C25.4887 34.1406 26.0172 33.9217 26.407 33.532C26.7967 33.1422 27.0156 32.6137 27.0156 32.0625V29.3906H29.6875C30.2387 29.3906 30.7672 29.1717 31.157 28.782C31.5467 28.3922 31.7656 27.8637 31.7656 27.3125V10.6875C31.7654 10.4514 31.6714 10.225 31.5044 10.0581ZM25.2344 32.0625C25.2344 32.1412 25.2031 32.2167 25.1474 32.2724C25.0917 32.3281 25.0162 32.3594 24.9375 32.3594H8.3125C8.23376 32.3594 8.15825 32.3281 8.10258 32.2724C8.0469 32.2167 8.01562 32.1412 8.01562 32.0625V10.6875C8.01562 10.6088 8.0469 10.5333 8.10258 10.4776C8.15825 10.4219 8.23376 10.3906 8.3125 10.3906H19.8179L25.2344 15.8071V32.0625ZM29.9844 27.3125C29.9844 27.3912 29.9531 27.4667 29.8974 27.5224C29.8417 27.5781 29.7662 27.6094 29.6875 27.6094H27.0156V15.4375C27.0154 15.2014 26.9214 14.975 26.7544 14.8081L20.8169 8.87062C20.65 8.70355 20.4236 8.60958 20.1875 8.60938H12.7656V5.9375C12.7656 5.85876 12.7969 5.78325 12.8526 5.72758C12.9083 5.6719 12.9838 5.64062 13.0625 5.64062H24.5679L29.9844 11.0571V27.3125ZM21.0781 22.5625C21.0781 22.7987 20.9843 23.0252 20.8173 23.1923C20.6502 23.3593 20.4237 23.4531 20.1875 23.4531H13.0625C12.8263 23.4531 12.5998 23.3593 12.4327 23.1923C12.2657 23.0252 12.1719 22.7987 12.1719 22.5625C12.1719 22.3263 12.2657 22.0998 12.4327 21.9327C12.5998 21.7657 12.8263 21.6719 13.0625 21.6719H20.1875C20.4237 21.6719 20.6502 21.7657 20.8173 21.9327C20.9843 22.0998 21.0781 22.3263 21.0781 22.5625ZM21.0781 27.3125C21.0781 27.5487 20.9843 27.7752 20.8173 27.9423C20.6502 28.1093 20.4237 28.2031 20.1875 28.2031H13.0625C12.8263 28.2031 12.5998 28.1093 12.4327 27.9423C12.2657 27.7752 12.1719 27.5487 12.1719 27.3125C12.1719 27.0763 12.2657 26.8498 12.4327 26.6827C12.5998 26.5157 12.8263 26.4219 13.0625 26.4219H20.1875C20.4237 26.4219 20.6502 26.5157 20.8173 26.6827C20.9843 26.8498 21.0781 27.0763 21.0781 27.3125Z" fill="black"/>
</g>
</svg>
