<svg width="38" height="38" viewBox="0 0 38 38" fill="none" xmlns="http://www.w3.org/2000/svg">
<g opacity="0.4">
<path d="M25.7079 23.0078C24.2354 25.555 21.7906 27.0156 19 27.0156C16.2094 27.0156 13.7646 25.555 12.2921 23.0078C12.1856 22.8043 12.1619 22.5675 12.2259 22.3468C12.2899 22.1262 12.4367 21.9389 12.6356 21.8239C12.8345 21.709 13.0701 21.6753 13.2932 21.7299C13.5163 21.7846 13.7097 21.9233 13.8329 22.1172C14.9966 24.127 16.8313 25.2344 19 25.2344C21.1687 25.2344 23.0078 24.127 24.1671 22.1172C24.2228 22.0108 24.2994 21.9167 24.3924 21.8406C24.4854 21.7646 24.5928 21.7081 24.7081 21.6747C24.8235 21.6412 24.9444 21.6314 25.0637 21.6459C25.1829 21.6604 25.298 21.6988 25.402 21.7589C25.506 21.819 25.5967 21.8996 25.6688 21.9957C25.7409 22.0918 25.7928 22.2015 25.8213 22.3181C25.8499 22.4348 25.8546 22.556 25.8351 22.6746C25.8156 22.7931 25.7723 22.9064 25.7079 23.0078ZM34.1406 19C34.1406 21.9945 33.2527 24.9218 31.589 27.4117C29.9253 29.9015 27.5607 31.8422 24.7941 32.9881C22.0275 34.1341 18.9832 34.4339 16.0462 33.8497C13.1092 33.2655 10.4114 31.8235 8.29397 29.706C6.17651 27.5886 4.73451 24.8908 4.1503 21.9538C3.5661 19.0168 3.86593 15.9725 5.01189 13.2059C6.15785 10.4393 8.09846 8.0747 10.5883 6.41103C13.0782 4.74736 16.0055 3.85938 19 3.85938C23.0141 3.86409 26.8624 5.46077 29.7008 8.29917C32.5392 11.1376 34.1359 14.9859 34.1406 19ZM32.3594 19C32.3594 16.3578 31.5759 13.7749 30.1079 11.5779C28.64 9.38099 26.5535 7.66869 24.1124 6.65755C21.6713 5.64641 18.9852 5.38185 16.3937 5.89732C13.8023 6.4128 11.4218 7.68515 9.5535 9.5535C7.68516 11.4218 6.4128 13.8022 5.89733 16.3937C5.38185 18.9852 5.64641 21.6713 6.65755 24.1124C7.66869 26.5535 9.381 28.64 11.5779 30.1079C13.7749 31.5759 16.3578 32.3594 19 32.3594C22.5419 32.3554 25.9377 30.9467 28.4422 28.4422C30.9467 25.9376 32.3555 22.5419 32.3594 19ZM13.6563 17.5156C13.9498 17.5156 14.2368 17.4286 14.4809 17.2655C14.725 17.1024 14.9153 16.8705 15.0276 16.5993C15.14 16.3281 15.1694 16.0296 15.1121 15.7417C15.0548 15.4537 14.9135 15.1892 14.7059 14.9816C14.4983 14.774 14.2338 14.6327 13.9458 14.5754C13.6579 14.5181 13.3594 14.5475 13.0882 14.6599C12.817 14.7722 12.5851 14.9625 12.422 15.2066C12.2589 15.4507 12.1719 15.7377 12.1719 16.0312C12.1719 16.4249 12.3283 16.8025 12.6066 17.0809C12.885 17.3592 13.2626 17.5156 13.6563 17.5156ZM24.3438 14.5469C24.0502 14.5469 23.7632 14.6339 23.5191 14.797C23.275 14.9601 23.0847 15.192 22.9724 15.4632C22.86 15.7344 22.8306 16.0329 22.8879 16.3208C22.9452 16.6088 23.0865 16.8733 23.2941 17.0809C23.5017 17.2885 23.7662 17.4298 24.0542 17.4871C24.3421 17.5444 24.6406 17.515 24.9118 17.4026C25.183 17.2903 25.4149 17.1 25.578 16.8559C25.7411 16.6118 25.8281 16.3248 25.8281 16.0312C25.8281 15.6376 25.6717 15.26 25.3934 14.9816C25.115 14.7033 24.7374 14.5469 24.3438 14.5469Z" fill="black"/>
</g>
</svg>
