<svg width="38" height="38" viewBox="0 0 38 38" fill="none" xmlns="http://www.w3.org/2000/svg">
<g opacity="0.4">
<path d="M33.7977 7.61098C33.691 7.52768 33.5667 7.46981 33.4342 7.44177C33.3017 7.41374 33.1646 7.41627 33.0333 7.44919L23.8539 9.74403L14.6508 5.14247C14.4605 5.04755 14.2425 5.02386 14.0362 5.07567L4.53625 7.45067C4.34341 7.49835 4.17204 7.60912 4.04939 7.76539C3.92674 7.92166 3.85986 8.11444 3.85938 8.31309V29.6881C3.85937 29.8235 3.89024 29.9571 3.94964 30.0788C4.00904 30.2005 4.0954 30.3071 4.20217 30.3903C4.30893 30.4736 4.43328 30.5315 4.56577 30.5595C4.69825 30.5875 4.83538 30.5849 4.96672 30.552L14.1461 28.2572L23.3492 32.8587C23.5395 32.9536 23.7575 32.9773 23.9638 32.9255L33.4638 30.5505C33.6566 30.5028 33.828 30.3921 33.9506 30.2358C34.0733 30.0795 34.1401 29.8867 34.1406 29.6881V8.31309C34.1406 8.1777 34.1097 8.04409 34.0503 7.92243C33.9909 7.80077 33.9045 7.69425 33.7977 7.61098ZM15.1406 7.37942L22.8594 11.2388V30.6218L15.1406 26.7624V7.37942ZM5.64062 9.01223L13.3594 7.08255V26.6184L5.64062 28.5481V9.01223ZM32.3594 28.9934L24.6406 30.9231V11.3828L32.3594 9.45309V28.9934Z" fill="black"/>
</g>
</svg>
