<svg width="38" height="38" viewBox="0 0 38 38" fill="none" xmlns="http://www.w3.org/2000/svg">
<g opacity="0.4">
<path d="M31.5044 12.4331L23.1919 4.12063C23.025 3.95355 22.7986 3.85958 22.5625 3.85938H8.3125C7.76135 3.85938 7.23277 4.07832 6.84304 4.46804C6.45332 4.85777 6.23438 5.38635 6.23438 5.9375V32.0625C6.23438 32.6137 6.45332 33.1422 6.84304 33.532C7.23277 33.9217 7.76135 34.1406 8.3125 34.1406H29.6875C30.2387 34.1406 30.7672 33.9217 31.157 33.532C31.5467 33.1422 31.7656 32.6137 31.7656 32.0625V13.0625C31.7654 12.8264 31.6714 12.6 31.5044 12.4331ZM23.4531 6.89937L28.7256 12.1719H23.4531V6.89937ZM29.6875 32.3594H8.3125C8.23376 32.3594 8.15825 32.3281 8.10258 32.2724C8.0469 32.2167 8.01562 32.1412 8.01562 32.0625V5.9375C8.01562 5.85876 8.0469 5.78325 8.10258 5.72758C8.15825 5.6719 8.23376 5.64062 8.3125 5.64062H21.6719V13.0625C21.6719 13.2987 21.7657 13.5252 21.9327 13.6923C22.0998 13.8593 22.3263 13.9531 22.5625 13.9531H29.9844V32.0625C29.9844 32.1412 29.9531 32.2167 29.8974 32.2724C29.8417 32.3281 29.7662 32.3594 29.6875 32.3594Z" fill="black"/>
</g>
</svg>
