<svg width="136" height="67" viewBox="0 0 136 67" fill="none" xmlns="http://www.w3.org/2000/svg">
<path d="M131.008 11.3207H52.5506C48.5328 4.94965 41.4335 0.708008 33.3611 0.708008C25.2887 0.708008 18.1894 4.94965 14.1716 11.3207H4.99328C2.24015 11.3207 0 13.4219 0 16.0052V53.0421C0 55.6255 2.24015 57.7266 4.99328 57.7266H9.12174L9.66302 65.0412C9.72699 65.9109 10.4516 66.5826 11.3225 66.5826H18.9718C19.7763 66.5826 20.4652 66.0081 20.6091 65.2171L21.9746 57.7266H114.025L115.391 65.2171C115.535 66.0081 116.224 66.5826 117.028 66.5826H124.677C125.55 66.5826 126.273 65.9097 126.337 65.0412L126.878 57.7266H131.007C133.76 57.7266 136 55.6255 136 53.0421V16.0052C136.001 13.4219 133.761 11.3207 131.008 11.3207ZM33.3611 4.03686C44.0267 4.03686 52.7031 12.7133 52.7031 23.3789C52.7031 34.0445 44.0267 42.7209 33.3611 42.7209C22.6955 42.7209 14.0191 34.0445 14.0191 23.3789C14.0191 12.7133 22.6967 4.03686 33.3611 4.03686ZM17.5829 63.255H12.8676L12.4592 57.7266H18.5916L17.5829 63.255ZM123.134 63.255H118.418L117.411 57.7266H123.543L123.134 63.255ZM132.672 53.0421C132.672 53.7777 131.91 54.399 131.008 54.399H4.99328C4.09156 54.399 3.32885 53.7777 3.32885 53.0421V16.0052C3.32885 15.2696 4.09156 14.6483 4.99328 14.6483H12.4395C11.3139 17.3363 10.6902 20.2862 10.6902 23.3777C10.6902 35.8787 20.8601 46.0485 33.3611 46.0485C45.8621 46.0485 56.032 35.8787 56.032 23.3777C56.032 20.285 55.4083 17.3363 54.2827 14.6483H131.007C131.908 14.6483 132.671 15.2696 132.671 16.0052L132.672 53.0421ZM33.3611 38.5629C41.7337 38.5629 48.5452 31.7515 48.5452 23.3789C48.5452 15.0063 41.7337 8.19485 33.3611 8.19485C24.9885 8.19485 18.1771 15.0063 18.1771 23.3789C18.1771 31.7515 24.9885 38.5629 33.3611 38.5629ZM33.3611 11.5237C39.8983 11.5237 45.2163 16.8417 45.2163 23.3789C45.2163 29.916 39.8983 35.2341 33.3611 35.2341C26.824 35.2341 21.5059 29.916 21.5059 23.3789C21.5059 16.8417 26.824 11.5237 33.3611 11.5237ZM108.661 47.0241C108.661 47.943 107.915 48.6885 106.996 48.6885H86.0291C85.1101 48.6885 84.3647 47.943 84.3647 47.0241C84.3647 46.1051 85.1101 45.3596 86.0291 45.3596H106.996C107.915 45.3596 108.661 46.1051 108.661 47.0241ZM108.661 38.6909C108.661 39.6098 107.915 40.3553 106.996 40.3553H86.0291C85.1101 40.3553 84.3647 39.6098 84.3647 38.6909C84.3647 37.7719 85.1101 37.0264 86.0291 37.0264H106.996C107.915 37.0264 108.661 37.7719 108.661 38.6909ZM108.661 22.0232C108.661 22.9422 107.915 23.6877 106.996 23.6877H86.0291C85.1101 23.6877 84.3647 22.9422 84.3647 22.0232C84.3647 21.1043 85.1101 20.3588 86.0291 20.3588H106.996C107.915 20.3588 108.661 21.1043 108.661 22.0232ZM108.661 30.3564C108.661 31.2754 107.915 32.0209 106.996 32.0209H86.0291C85.1101 32.0209 84.3647 31.2754 84.3647 30.3564C84.3647 29.4375 85.1101 28.692 86.0291 28.692H106.996C107.915 28.6933 108.661 29.4375 108.661 30.3564ZM125.678 20.3588H116.441C115.523 20.3588 114.777 21.1043 114.777 22.0232V38.6909C114.777 39.6098 115.523 40.3553 116.441 40.3553H125.678C126.597 40.3553 127.342 39.6098 127.342 38.6909V22.0232C127.342 21.1043 126.597 20.3588 125.678 20.3588ZM124.013 37.0264H118.106V23.6877H124.013V37.0264Z" fill="#3F69FF"/>
</svg>
