<svg width="40" height="40" viewBox="0 0 40 40" fill="none" xmlns="http://www.w3.org/2000/svg">
<path fill-rule="evenodd" clip-rule="evenodd" d="M6.01631 4.25488H33.9857C36.3598 4.25488 38.2989 6.21637 38.2989 8.61801V26.4322C38.2989 28.8339 36.3598 30.7954 33.9857 30.7954H24.5472V34.6656H28.8174C30.0731 34.6656 30.0731 36.5953 28.8174 36.5953H11.1846C9.92885 36.5953 9.92885 34.6656 11.1846 34.6656H15.4543V30.7954H6.01631C3.64216 30.7954 1.70312 28.8339 1.70312 26.4322V8.61801C1.70312 6.21637 3.64216 4.25488 6.01631 4.25488ZM19.0778 12.2521C17.9456 11.4912 16.4357 12.3174 16.4357 13.6627V21.388C16.4357 22.7324 17.9452 23.56 19.0778 22.7986L24.826 18.9362C25.0625 18.7772 25.249 18.571 25.3791 18.3296L25.3808 18.3305C25.6475 17.8332 25.6475 17.2179 25.3808 16.7207L25.3787 16.7211C25.249 16.4797 25.0621 16.2731 24.8255 16.1145L19.0778 12.2521ZM23.4849 17.5256L18.3433 14.0706V20.9809L23.4849 17.5256ZM17.3619 34.6656H22.6397V30.7954H17.3619V34.6656ZM33.9857 6.185H6.01631C4.69547 6.185 3.61072 7.28188 3.61072 8.61845V26.4327C3.61072 27.7688 4.69504 28.8661 6.01631 28.8661C15.3393 28.8661 24.6627 28.8661 33.9857 28.8661C35.3065 28.8661 36.3913 27.7692 36.3913 26.4327V8.61801C36.3913 7.28188 35.3065 6.185 33.9857 6.185Z" fill="#3F69FF"/>
</svg>
