<svg width="11" height="16" viewBox="0 0 11 16" fill="none" xmlns="http://www.w3.org/2000/svg">
<path d="M5.98738 0.519527C5.66555 0.493491 5.33085 0.493491 5.00853 0.519527C3.19292 0.665918 1.63279 1.67591 0.728701 3.28965C-0.211533 4.96921 -0.247677 6.98429 0.653938 8.71789L4.64461 15.0314C4.82979 15.3251 5.14964 15.5 5.4987 15.5C5.84776 15.5 6.1676 15.3251 6.35328 15.0314L10.3435 8.71789C10.3509 8.70659 10.3573 8.69382 10.3638 8.68203C11.2446 6.98478 11.2089 4.96921 10.2687 3.28965C9.36361 1.67591 7.80349 0.665918 5.98738 0.519527ZM9.49234 8.21338L5.48335 14.5092L1.51347 8.23205C0.78465 6.82808 0.815347 5.15883 1.59417 3.76714C2.33487 2.4452 3.60833 1.61844 5.08923 1.49956C5.2239 1.48826 5.36056 1.48236 5.4982 1.48236C5.63585 1.48236 5.7725 1.48826 5.90717 1.49907C7.38758 1.61795 8.66153 2.44471 9.40223 3.76665C10.1776 5.15244 10.2113 6.81285 9.49234 8.21338Z" fill="#3F69FF"/>
<path d="M5.49795 3.23047C4.09874 3.23047 2.95996 4.36033 2.95996 5.74858C2.95996 7.13684 4.09874 8.2667 5.49795 8.2667C6.89716 8.2667 8.03594 7.13684 8.03594 5.74858C8.03594 4.36033 6.89716 3.23047 5.49795 3.23047ZM5.49795 7.28421C4.64436 7.28421 3.9502 6.59549 3.9502 5.74858C3.9502 4.90168 4.64436 4.21296 5.49795 4.21296C6.35154 4.21296 7.0457 4.90168 7.0457 5.74858C7.0457 6.59549 6.35154 7.28421 5.49795 7.28421Z" fill="#3F69FF"/>
</svg>
