<svg width="149" height="38" viewBox="0 0 149 38" fill="none" xmlns="http://www.w3.org/2000/svg">
<path d="M10.27 13.5478H14.1275L24.3311 37.8924H20.2746L17.6365 31.4678H6.73609L4.09808 37.8924H0.0664062L10.27 13.5478ZM8.15464 27.9724H16.2429L12.2112 17.8801L8.15464 27.9724ZM52.6026 37.8924V20.3417L38.8899 37.8924H35.5551V13.5478H39.4126V31.1232L53.1252 13.5478H56.4601V37.8924H52.6026ZM86.3492 13.5478V17.0186H78.9578V37.8924H75.1003V17.0186H67.7089V13.5478H86.3492ZM115.342 34.397V37.8678H97.5981V13.5232H114.994V16.994H101.456V23.4186H112.182V26.8893H101.456V34.3478H115.342V34.397ZM131.519 25.3632L142.594 13.5232H147.521L138.039 23.6155L148.243 37.8678H143.489L135.401 26.397L131.544 30.5817V37.8924H127.686V13.5478H131.544V25.3632H131.519Z" fill="white"/>
<path d="M49.2922 8.69843C49.3059 9.15382 49.2053 9.60546 48.9994 10.013C48.7934 10.4205 48.4886 10.7712 48.1122 11.0337C47.7357 11.2962 47.2993 11.4624 46.8421 11.5173C46.3848 11.5722 45.9209 11.5142 45.4919 11.3484C45.0629 11.1827 44.6821 10.9143 44.3835 10.5674C44.085 10.2205 43.878 9.80575 43.7811 9.36036C43.6842 8.91496 43.7004 8.45276 43.8283 8.01508C43.9562 7.57741 44.1917 7.1779 44.5139 6.85228C45.0863 6.28612 45.8578 6.01535 46.6044 6.03997H46.6293C47.0145 6.05013 47.3977 5.98259 47.7556 5.84145C48.1135 5.70032 48.4386 5.48855 48.7111 5.21906C48.9835 4.94958 49.1976 4.62802 49.3403 4.27401C49.483 3.92 49.5513 3.54094 49.541 3.15997V3.13535C49.5273 2.67997 49.6279 2.22832 49.8339 1.8208C50.0398 1.41328 50.3446 1.06258 50.7211 0.800068C51.0975 0.537556 51.5339 0.371412 51.9911 0.316492C52.4484 0.261572 52.9123 0.319589 53.3413 0.485354C53.7704 0.651119 54.1512 0.919466 54.4497 1.2664C54.7483 1.61333 54.9552 2.02804 55.0521 2.47343C55.149 2.91882 55.1328 3.38102 55.0049 3.8187C54.877 4.25638 54.6415 4.65589 54.3193 4.98151C54.0451 5.25051 53.7183 5.46131 53.3588 5.60099C52.9993 5.74067 52.6148 5.80628 52.2288 5.79382H52.2039C51.8166 5.78349 51.4312 5.85175 51.0716 5.99439C50.712 6.13702 50.3857 6.35101 50.1128 6.62316C49.84 6.89531 49.6265 7.21985 49.4853 7.57677C49.3442 7.93369 49.2784 8.31542 49.2922 8.69843C49.2922 8.67382 49.2922 8.67382 49.2922 8.69843Z" fill="url(#paint0_linear_410_393)"/>
<path d="M43.6934 8.69819C43.6797 9.15357 43.7803 9.60522 43.9862 10.0127C44.1921 10.4203 44.4969 10.771 44.8734 11.0335C45.2499 11.296 45.6862 11.4621 46.1435 11.517C46.6007 11.572 47.0646 11.514 47.4937 11.3482C47.9227 11.1824 48.3035 10.9141 48.6021 10.5671C48.9006 10.2202 49.1076 9.8055 49.2045 9.36011C49.3013 8.91472 49.2851 8.45252 49.1572 8.01484C49.0294 7.57716 48.7938 7.17765 48.4717 6.85203C48.1975 6.58303 47.8706 6.37223 47.5112 6.23255C47.1517 6.09288 46.7672 6.02726 46.3812 6.03973H46.3563C45.9711 6.04989 45.5879 5.98235 45.23 5.84121C44.872 5.70007 44.5469 5.48831 44.2745 5.21882C44.002 4.94933 43.7879 4.62778 43.6452 4.27377C43.5025 3.91975 43.4342 3.5407 43.4445 3.15973V3.13511C43.4582 2.67973 43.3576 2.22808 43.1517 1.82056C42.9458 1.41303 42.641 1.06234 42.2645 0.799823C41.888 0.537311 41.4517 0.371167 40.9944 0.316248C40.5372 0.261328 40.0733 0.319345 39.6443 0.48511C39.2152 0.650875 38.8344 0.919222 38.5358 1.26615C38.2373 1.61309 38.0303 2.02779 37.9334 2.47319C37.8366 2.91858 37.8528 3.38078 37.9807 3.81846C38.1085 4.25613 38.3441 4.65564 38.6662 4.98126C39.2386 5.54742 40.0101 5.81819 40.7567 5.79357H40.7816C41.169 5.78325 41.5543 5.8515 41.914 5.99414C42.2736 6.13678 42.5999 6.35077 42.8727 6.62292C43.1455 6.89507 43.3591 7.21961 43.5003 7.57653C43.6414 7.93345 43.7071 8.31518 43.6934 8.69819C43.7183 8.67357 43.7183 8.67357 43.6934 8.69819Z" fill="url(#paint1_linear_410_393)"/>
<defs>
<linearGradient id="paint0_linear_410_393" x1="43.7175" y1="5.91689" x2="55.1157" y2="5.91689" gradientUnits="userSpaceOnUse">
<stop offset="0.1" stop-color="#006E3B"/>
<stop offset="0.7" stop-color="#0C5B82"/>
<stop offset="1" stop-color="#11539F"/>
</linearGradient>
<linearGradient id="paint1_linear_410_393" x1="49.4423" y1="9.28896" x2="37.7856" y2="2.458" gradientUnits="userSpaceOnUse">
<stop stop-color="#E31921"/>
<stop offset="0.1" stop-color="#E42721"/>
<stop offset="0.4" stop-color="#E63D22"/>
<stop offset="0.5" stop-color="#A8752F"/>
<stop offset="0.7" stop-color="#64B23E"/>
<stop offset="1" stop-color="#65B231"/>
</linearGradient>
</defs>
</svg>
